<svg xmlns="http://www.w3.org/2000/svg" width="55.571" height="31.973" viewBox="0 0 55.571 31.973"><g id="Group_220" data-name="Group 220" transform="translate(-303.485 -382.543)"><g id="Group_208" data-name="Group 208" transform="translate(303.485 382.543)"><g id="Group_199" data-name="Group 199" transform="translate(4.603)"><path id="Path_953" fill="#f9eacd" d="M335.652,394.912c3.5-1.887,8.564-4.4,10.5-5.929.958-.758,1.289-1.19,1.29-1.551a14.82,14.82,0,0,0-2.422-1.953c-4.478-2.99-7.736-3.323-9.167-2.634-1.035.5-13.178,6.468-19.569,9.347-5.65,2.545-4.849,5.524-4.849,5.524l7.77,5.051c1.718-.953,2.753-.967,4.58-1.841C327.436,399.178,332.088,396.834,335.652,394.912Z" data-name="Path 953" transform="translate(-311.394 -382.543)"/><g id="Group_198" data-name="Group 198" transform="translate(7.81 4.89)"><path id="Path_954" fill="#ead7b5" d="M352.454,394.05a3.39,3.39,0,0,0,1.68-1.591,5.428,5.428,0,0,0-1.087-1.514c0,.361-.332.793-1.29,1.551-1.934,1.53-7,4.042-10.5,5.929-3.564,1.922-8.216,4.266-11.869,6.013-1.827.874-2.863.888-4.58,1.841l2.054,1.984c2.445-1.358,5.026-2.495,7.5-3.789C337.7,402.724,352.086,394.247,352.454,394.05Z" data-name="Path 954" transform="translate(-324.811 -390.944)"/><path id="Path_955" fill="#d6bd94" d="M334.113,408.062c6.705-4.009,20.044-11.737,20.944-12.258a1.618,1.618,0,0,0,.552-2.258,3.391,3.391,0,0,1-1.68,1.591c-.368.2-14.757,8.674-18.093,10.423-2.47,1.294-5.051,2.431-7.5,3.789l.963.93S330.679,410.114,334.113,408.062Z" data-name="Path 955" transform="translate(-326.286 -392.032)"/></g></g><path id="Path_956" fill="#ead7b5" d="M335.849,402.855a5.983,5.983,0,0,0-1.6-1.43,1.093,1.093,0,0,0-1.555.364c-.283.487,0,.934.267,1.345.379.58.462,1.343.893,1.876a1.4,1.4,0,0,0,2.4-.7A1.579,1.579,0,0,0,335.849,402.855Z" data-name="Path 956" transform="translate(-315.641 -390.362)"/><path id="Path_957" fill="#d6bd94" d="M320.822,398.608s-8.713.6-9.4,5.822c-.357,2.705.943,3.96,4.4,6.4,3.648,2.574,9.18,2.743,8.135-2.37A49.242,49.242,0,0,0,320.822,398.608Z" data-name="Path 957" transform="translate(-306.778 -389.257)"/><path id="Path_958" fill="#d6bd94" d="M326.256,394.68s8.945,0,14.972-2.538c4.831-2.034,5.822-5.076,5.822-5.076s-1.716,2.035-6.27,4.081c-3.647,1.64-13.734,2.637-13.734,2.637Z" data-name="Path 958" transform="translate(-313.002 -384.433)"/><path id="Path_959" fill="#d6bd94" d="M335.8,403.385c-.206-.514-1.112-1.426-1.62-1.23-.185.072-.28.183-.261.353a.59.59,0,0,0,0,.212,4.231,4.231,0,0,0,.443,1.077,1.653,1.653,0,0,0,.751.824.591.591,0,0,0,.745-.288A1.21,1.21,0,0,0,335.8,403.385Z" data-name="Path 959" transform="translate(-316.202 -390.729)"/><path id="Path_960" fill="#ead7b5" d="M340.972,401.673a.841.841,0,0,0-.93-.4.318.318,0,0,0-.237.439,1.147,1.147,0,0,0,.125.3c.1.194.208.389.314.582a.347.347,0,0,0,.537.069A.817.817,0,0,0,340.972,401.673Z" data-name="Path 960" transform="translate(-318.656 -390.362)"/><path id="Path_961" fill="#ead7b5" d="M345.716,391.149c-.493.135-.984.277-1.477.415a.539.539,0,0,0-.161,1.043,2.12,2.12,0,0,0,1.46-.023,1.212,1.212,0,0,0,.686-1.047A.405.405,0,0,0,345.716,391.149Z" data-name="Path 961" transform="translate(-320.303 -386.134)"/><path id="Path_962" fill="#ead7b5" d="M338.8,392.857a3.483,3.483,0,0,0-1.566.239.273.273,0,0,0,0,.466c.446.262,1.315.487,1.708.015A.47.47,0,0,0,338.8,392.857Z" data-name="Path 962" transform="translate(-317.535 -386.838)"/><path id="Path_963" fill="#ead7b5" d="M353.3,385.822c-.394.065-.534.435-.9.59-.77.326-1.365-.091-2.051.418a.38.38,0,0,0-.073.566,2.271,2.271,0,0,0,1.938.47c.582-.109,1.591-.429,1.837-1.028A.726.726,0,0,0,353.3,385.822Z" data-name="Path 963" transform="translate(-322.999 -383.909)"/><path id="Path_964" fill="#ead7b5" d="M364.521,388.92a2.746,2.746,0,0,0-1.43.334,2.021,2.021,0,0,0-.482.73,1.6,1.6,0,0,0,.183,1.61,1.133,1.133,0,0,0,1.389.361,1.18,1.18,0,0,0,.9-.985C365.288,389.61,365.152,389.161,364.521,388.92Z" data-name="Path 964" transform="translate(-328.141 -385.201)"/><path id="Path_965" fill="#d6bd94" d="M364.282,390.685a1.392,1.392,0,0,0-.723.169,1.028,1.028,0,0,0-.244.37.814.814,0,0,0,.093.815.574.574,0,0,0,.7.183.6.6,0,0,0,.453-.5C364.671,391.034,364.6,390.807,364.282,390.685Z" data-name="Path 965" transform="translate(-328.463 -385.942)"/><path id="Path_966" fill="#ead7b5" d="M353.468,398.05c-.146.041-1.513.1-1.938.23a.589.589,0,0,0-.2,1.041,1.68,1.68,0,0,0,2.622-.785C354.071,398.249,353.733,397.976,353.468,398.05Z" data-name="Path 966" transform="translate(-323.385 -389.019)"/><path id="Path_967" fill="#ead7b5" d="M344.364,402.675a7.375,7.375,0,0,0-.754.861.543.543,0,0,0,.385.654.65.65,0,0,0,.761-.3,2.021,2.021,0,0,0,.347-.875C345.071,402.183,344.691,402.372,344.364,402.675Z" data-name="Path 967" transform="translate(-320.245 -390.85)"/><path id="Path_968" fill="#c4a578" d="M320.936,400.129a38.3,38.3,0,0,0-5.5,1.13,5.165,5.165,0,0,0-3.379,5.449c.176,1.012,1.122,2.012,2.426,3.1a14.732,14.732,0,0,0,5.815,2.948c1.556.173,2.792-.212,3.227-1.269.4-.966.437-1.754-.346-4.478C322,402.933,320.936,400.129,320.936,400.129Z" data-name="Path 968" transform="translate(-307.04 -389.893)"/><path id="Path_969" fill="#b4e20e" d="M320.822,408.558c-.588-2.072-.9-2.969-1.241-4.133-.97-1.054-2.506-.392-3.839-.226-1.542.191-2.514-.7-4.623-.105a8.724,8.724,0,0,1-2.957.527c-1.288.2-.578,1.29-.5,1.372.318.349.135.609-.263.845-.8.47-.8,1.534.482,1.584a3.649,3.649,0,0,0-1.5,1.917c-.133.913.836,1,1.673,1-.417.585-.753,1.341.145,1.616.98.3,1.629-.353,2.418-.638-.328.873-.839,1.785.351,1.931a2.162,2.162,0,0,0,1.6-.42c-.5.946-.419,1.635-.2,1.8,1.1.8,1.848-.4,2.164-.81.244.665.2,1.545,1.377,1.5a1.339,1.339,0,0,0,.894-.6c.315,1.049,1.569.979,2.087-.291a1.033,1.033,0,0,0,.853.7c1.536.024,1.741-3.289,1.744-4.18A16.641,16.641,0,0,0,320.822,408.558Z" data-name="Path 969" transform="translate(-304.687 -391.444)"/><path id="Path_970" fill="#a0c600" d="M312.594,406.474c-.371-.045-.877-.186-1.176.129a.6.6,0,0,0-.018.8.791.791,0,0,0,.524.289,1.468,1.468,0,0,0-.623.948.815.815,0,0,0,.784.905,1.947,1.947,0,0,0,1.571-.892c.608-.761.947-1.51,1.873-1.937C314.424,406,313.465,406.58,312.594,406.474Z" data-name="Path 970" transform="translate(-306.732 -392.494)"/><path id="Path_971" fill="#a0c600" d="M326.98,413.431a6.629,6.629,0,0,0-.41-2.063,30.217,30.217,0,0,1-.884-4.072c-.785.193-2.868.87-2.9,1.918-.012.4.931.859.431,1.41-.07.079-.762.594-.843.669-.483.449-1.42,1.368-.94,1.818.364.342,1.457-.039,1.676.14.309.252.233.622-.225,1.265a1.629,1.629,0,0,0,.223,1.847c.726,1.088,1.087-.416,1.736-.868s1.057-.048,1.6-.588A1.853,1.853,0,0,0,326.98,413.431Z" data-name="Path 971" transform="translate(-310.932 -392.888)"/><path id="Path_972" fill="#a0c600" d="M309.833,412.758c-.663.036-1.039.338-.479.716.592.4.611.656,1.288.546a6.2,6.2,0,0,0,2.64-1.466C312.184,411.7,310.86,412.7,309.833,412.758Z" data-name="Path 972" transform="translate(-305.824 -394.943)"/><path id="Path_973" fill="#a0c600" d="M317.549,413.787a4.245,4.245,0,0,0-2.467,1.589,1.308,1.308,0,0,0-.359,1.048.716.716,0,0,0,.652.534,1.8,1.8,0,0,0,1.6-.914c.164-.373-.04-.64-.023-1.006A2.2,2.2,0,0,1,317.549,413.787Z" data-name="Path 973" transform="translate(-308.172 -395.601)"/><g id="Group_200" data-name="Group 200" transform="translate(6.877 17.315)"><path id="Path_974" fill="#ff4343" d="M315.316,415.791a4.52,4.52,0,0,1,2.717-2.243,8.833,8.833,0,0,1,2.683-.533l.194.714a13.456,13.456,0,0,0-2.8.585A18.743,18.743,0,0,0,315.316,415.791Z" data-name="Path 974" transform="translate(-315.306 -412.594)"/><path id="Path_975" fill="#ed2b2b" d="M315.309,415.488a1.944,1.944,0,0,1,.721-1.619,9.7,9.7,0,0,1,2.67-1.578l1.137.575a21.819,21.819,0,0,0-3.065,1.235A5.787,5.787,0,0,0,315.309,415.488Z" data-name="Path 975" transform="translate(-315.299 -412.291)"/></g><path id="Path_976" fill="#5e8e11" d="M319.86,417.288a7.436,7.436,0,0,1-1.1.6c-.344.112-.868.532-.456.888.317.274.849.021.849.021s-.159.621.327.7.71-.527.71-.527.185.571.508.534c.536-.062.582-.463.382-.878A7.952,7.952,0,0,0,319.86,417.288Z" data-name="Path 976" transform="translate(-309.615 -397.064)"/><g id="Group_201" data-name="Group 201" transform="translate(8.35 17.274)"><path id="Path_977" fill="#ea8b4b" d="M320.988,413.382a8.968,8.968,0,0,0-2.265,1.192,9.068,9.068,0,0,0-.892.885s3.307-.192,4.363-.36,3.234-.833,3.234-.833l.534-1.022-.266-1.024S321.666,413.065,320.988,413.382Z" data-name="Path 977" transform="translate(-317.83 -412.22)"/><path id="Path_978" fill="#d2742e" d="M317.83,415.91s1.66-.483,2.909-.8,5.152-1.808,5.152-1.808l.144,1.021a8.335,8.335,0,0,1-3.283,1.473A34.42,34.42,0,0,1,317.83,415.91Z" data-name="Path 978" transform="translate(-317.83 -412.671)"/></g><path id="Path_979" fill="#5e8e11" d="M326.867,418.966a2.381,2.381,0,0,0-.279.952c.019.392.087.852.087.852a1.335,1.335,0,0,0,.66-.889A1,1,0,0,0,326.867,418.966Z" data-name="Path 979" transform="translate(-313.14 -397.766)"/><g id="Group_202" data-name="Group 202" transform="translate(8.752 17.983)"><path id="Path_980" fill="#fff" d="M326.162,413.439c-.387.458-1.417,1.664-2.01,2.263-.739.748-5.631,1.043-5.631,1.043s4.232.51,5.3.13c.722-.258,1.852-1.8,2.506-2.761Q326.248,413.775,326.162,413.439Z" data-name="Path 980" transform="translate(-318.521 -413.439)"/><path id="Path_981" fill="#fec" d="M326.309,414.474a11.237,11.237,0,0,1-1.89,1.941c-1.5,1.144-5.9.763-5.9.763s3.521,1.463,5.9.047a7.543,7.543,0,0,0,2.074-1.777Q326.422,414.957,326.309,414.474Z" data-name="Path 981" transform="translate(-318.521 -413.872)"/></g><path id="Path_982" fill="#5e8e11" d="M313.08,411.074a12.689,12.689,0,0,1-1.579.247c-.634.037-.962.1-1.1.406-.208.456.569.516.569.516s-.737.357-.215.808c.414.358,1.049-.209,1.049-.209s-.116.7.294.726c.623.033.586-.8.687-1.224S313.08,411.074,313.08,411.074Z" data-name="Path 982" transform="translate(-306.361 -394.467)"/><g id="Group_203" data-name="Group 203" transform="translate(3.017 13.137)"><path id="Path_983" fill="#ea8b4b" d="M316.6,405.195s-1.231-.509-5.453,1.006a10.675,10.675,0,0,0-2.477,1.672,3.97,3.97,0,0,0,1.457.671,5.134,5.134,0,0,0,2.508-.671C313.456,407.492,316.6,405.195,316.6,405.195Z" data-name="Path 983" transform="translate(-308.668 -405.113)"/><path id="Path_984" fill="#d2742e" d="M308.668,408.207a6.062,6.062,0,0,0,1.934.053c.721-.172,2.772-1.531,3.421-1.742s2.047-.606,2.047-.606-3.132,2.363-4.511,2.739S309.75,409.025,308.668,408.207Z" data-name="Path 984" transform="translate(-308.668 -405.447)"/><path id="Path_985" fill="#d2742e" d="M310.078,408.743a5.671,5.671,0,0,0,1.4-.222,7.389,7.389,0,0,0,1.649-.808s-.735.161-1.294.317C311.386,408.155,310.078,408.743,310.078,408.743Z" data-name="Path 985" transform="translate(-309.257 -406.199)"/><path id="Path_986" fill="#d2742e" d="M313.124,407.167a7.36,7.36,0,0,0,1.371-.172,7.876,7.876,0,0,0,1.073-.376A4.969,4.969,0,0,0,313.124,407.167Z" data-name="Path 986" transform="translate(-310.53 -405.741)"/></g><g id="Group_204" data-name="Group 204" transform="translate(6.278 12.926)"><path id="Path_987" fill="#f7d48d" d="M323.249,405.4a10.919,10.919,0,0,0-2.649.138c-2.675.31-4.723,1.6-5.021,2.463s-.654,1.843-.654,1.843l.228.85s.694-3.192,2.925-3.963a15.9,15.9,0,0,1,5.467-.4A8.056,8.056,0,0,0,323.249,405.4Z" data-name="Path 987" transform="translate(-314.544 -405.006)"/><path id="Path_988" fill="#fff" d="M322.887,404.8a13.189,13.189,0,0,0-5.826.8,4.221,4.221,0,0,0-2.77,4.384l.589-.069s-.093-2.488,3.3-3.943a11.566,11.566,0,0,1,4.9-.467A4.6,4.6,0,0,0,322.887,404.8Z" data-name="Path 988" transform="translate(-314.271 -404.75)"/><path id="Path_989" fill="#fff" d="M314.3,413.7v.645l.589-.19v-.524Z" data-name="Path 989" transform="translate(-314.285 -408.461)"/></g><path id="Path_990" fill="#feb52c" d="M321.816,415.281l.412.442A38.649,38.649,0,0,1,325.7,411.7c.881-.654,1.477-1.2,1.477-1.2l-.2-.922a20.883,20.883,0,0,0-2.4,2.193A22.561,22.561,0,0,0,321.816,415.281Z" data-name="Path 990" transform="translate(-311.146 -393.841)"/><path id="Path_991" fill="#ffd654" d="M326.113,408.345a23.817,23.817,0,0,0-2.726,2.375c-.8.843-2.956,4.128-2.956,4.128l.806-.081a39.031,39.031,0,0,1,3.014-3.789c1.015-.967,2.147-1.918,2.147-1.918Z" data-name="Path 991" transform="translate(-310.568 -393.327)"/><g id="Group_205" data-name="Group 205" transform="translate(6.527 15.431)"><path id="Path_992" fill="#ed2b2b" d="M324.072,409.656l-8.967-.6-.407.041a6.274,6.274,0,0,0,3.007,3.151,6.752,6.752,0,0,0,5.151-.053,4.427,4.427,0,0,0,1.615-1.173A11.056,11.056,0,0,0,324.072,409.656Z" data-name="Path 992" transform="translate(-314.699 -409.054)"/><path id="Path_993" fill="#ff4343" d="M324.358,409.64l-8.96-.586a8.04,8.04,0,0,0,1.624,2.035,6.573,6.573,0,0,0,4.935.961,4.968,4.968,0,0,0,2.68-1.539Q324.517,410.07,324.358,409.64Z" data-name="Path 993" transform="translate(-314.991 -409.054)"/><path id="Path_994" fill="#ff6969" d="M319.588,410.122a3.6,3.6,0,0,0-2.08.144c-.362.251,1.207,1.709,2.877,1.894a6.61,6.61,0,0,0,3.379-.414c.831-.294,1.72-1.166.8-1.377-.647-.148-2.494.613-3.373.5S320.474,410.4,319.588,410.122Z" data-name="Path 994" transform="translate(-315.851 -409.464)"/><path id="Path_995" fill="#ed2b2b" d="M320.39,410.9a6.791,6.791,0,0,0-.961.285c-.294.136.263.506.632.249S320.39,410.9,320.39,410.9Z" data-name="Path 995" transform="translate(-316.641 -409.826)"/><path id="Path_996" fill="#ed2b2b" d="M321.848,411.61s-.548.427-.557.608.367.295.519.019A.892.892,0,0,0,321.848,411.61Z" data-name="Path 996" transform="translate(-317.454 -410.122)"/><path id="Path_997" fill="#ed2b2b" d="M323.63,412.022a.7.7,0,0,0-.173.606c.038.209.441.005.427-.151A1.367,1.367,0,0,0,323.63,412.022Z" data-name="Path 997" transform="translate(-318.354 -410.294)"/><path id="Path_998" fill="#ed2b2b" d="M325.264,411.855s-.135.651.015.774c.1.085.573-.1.436-.307A2.824,2.824,0,0,0,325.264,411.855Z" data-name="Path 998" transform="translate(-319.091 -410.225)"/><path id="Path_999" fill="#ed2b2b" d="M326.4,411.605a2.511,2.511,0,0,1,.714.394c.136.172.031.522-.272.207A2.613,2.613,0,0,1,326.4,411.605Z" data-name="Path 999" transform="translate(-319.591 -410.12)"/><path id="Path_1000" fill="#ed2b2b" d="M327.42,411.162s.6-.062.779.168.169.532-.164.319A4.451,4.451,0,0,1,327.42,411.162Z" data-name="Path 1000" transform="translate(-320.016 -409.932)"/></g><g id="Group_206" data-name="Group 206" transform="translate(0 11.424)"><path id="Path_1001" fill="#ffd654" d="M317.8,402.17a45.227,45.227,0,0,0-9.326,1.924c-3.829,1.487-4.988,3.09-4.988,3.09a55.028,55.028,0,0,1,8.735-3.005,59.279,59.279,0,0,1,6.076-.761C318.146,403,317.979,402.581,317.8,402.17Z" data-name="Path 1001" transform="translate(-303.485 -402.17)"/><path id="Path_1002" fill="#feb52c" d="M318.175,403.747a71.075,71.075,0,0,0-7.128.98,29.638,29.638,0,0,0-7.561,3.116,37.8,37.8,0,0,1,3.75-1.5,46.625,46.625,0,0,1,7.165-1.62c1.147-.137,2.659-.253,4-.339C318.327,404.171,318.255,403.958,318.175,403.747Z" data-name="Path 1002" transform="translate(-303.485 -402.829)"/></g><path id="Path_1003" fill="#5e8e11" d="M321.9,406.343s-1.546.086-1.736-.469.41-.532.41-.532-.307-.81.155-.932.816.357.816.357.6-.484.964-.272.118.6-.05.847S321.9,406.343,321.9,406.343Z" data-name="Path 1003" transform="translate(-310.438 -391.674)"/><g id="Group_207" data-name="Group 207" transform="translate(9.277 13.354)"><path id="Path_1004" fill="#ea8b4b" d="M325.16,405.486a10.278,10.278,0,0,0-3.189.57,4.094,4.094,0,0,0-2.266,2.112,3.342,3.342,0,0,0-.211,2.039s3.581-1.906,4.381-2.413a11.3,11.3,0,0,0,1.619-1.327Z" data-name="Path 1004" transform="translate(-319.423 -405.486)"/><path id="Path_1005" fill="#d2742e" d="M319.545,410.81a27.644,27.644,0,0,0,4.007-1.712,10.822,10.822,0,0,1,2.258-1.076l-.331-1.094S320.406,410,319.545,410.81Z" data-name="Path 1005" transform="translate(-319.474 -406.089)"/><path id="Path_1006" fill="#d2742e" d="M321.086,409.526s.832.04,1.278,0a4.352,4.352,0,0,0,1.161-.4,6.855,6.855,0,0,0-1.161.025A9.5,9.5,0,0,0,321.086,409.526Z" data-name="Path 1006" transform="translate(-320.118 -407)"/><path id="Path_1007" fill="#d2742e" d="M322.5,408.038a6.274,6.274,0,0,0,1.412-.043c.4-.074,1.211-.271,1.211-.271s-.122-.127-1.008-.16A2.951,2.951,0,0,0,322.5,408.038Z" data-name="Path 1007" transform="translate(-320.71 -406.354)"/><path id="Path_1008" fill="#d2742e" d="M325.452,406.684a7.481,7.481,0,0,0,1.26.037,9.544,9.544,0,0,0,.976-.136,4.746,4.746,0,0,0-1.026-.153A5.1,5.1,0,0,0,325.452,406.684Z" data-name="Path 1008" transform="translate(-321.943 -405.881)"/></g><path id="Path_1009" fill="#ff4343" d="M310.655,400.983l-.224.316a12.844,12.844,0,0,0,5.5,1.293,22.571,22.571,0,0,0,5.066-.2l-.3-.722Z" data-name="Path 1009" transform="translate(-306.388 -390.25)"/><path id="Path_1010" fill="#ed2b2b" d="M310.816,400.983a16.482,16.482,0,0,0,6.1,1.273,36.3,36.3,0,0,0,4.109-.192l-.367-.926a36.294,36.294,0,0,1-4.836.189C313.772,401.214,310.816,400.983,310.816,400.983Z" data-name="Path 1010" transform="translate(-306.549 -390.25)"/><path id="Path_1011" fill="#ffe292" d="M321.237,419.379l-.805.081.653.467.564-.1Z" data-name="Path 1011" transform="translate(-310.568 -397.938)"/><path id="Path_1012" fill="#5e8e11" d="M316.658,414.228a4,4,0,0,0-.78,0,1.973,1.973,0,0,0-.852.463,1.808,1.808,0,0,0,1.067,0A1.126,1.126,0,0,0,316.658,414.228Z" data-name="Path 1012" transform="translate(-308.308 -395.777)"/><path id="Path_1013" fill="#5e8e11" d="M314.47,405.757s.205.627.747.7,1.209.079,1.209.079a2.4,2.4,0,0,0-.755-.592A3.877,3.877,0,0,0,314.47,405.757Z" data-name="Path 1013" transform="translate(-308.076 -392.245)"/><path id="Path_1014" fill="#5e8e11" d="M331.317,415.4c-.076.023-.664.157-.79.547a9.693,9.693,0,0,0-.219,1.36,8.607,8.607,0,0,0,.868-.672,1.2,1.2,0,0,0,.278-.587Z" data-name="Path 1014" transform="translate(-314.695 -396.275)"/><path id="Path_1015" fill="#5e8e11" d="M325.452,402.862a.915.915,0,0,0,.554.728,3.746,3.746,0,0,0,.942.156,2.488,2.488,0,0,0-.556-.585A1.162,1.162,0,0,0,325.452,402.862Z" data-name="Path 1015" transform="translate(-312.666 -391.029)"/><path id="Path_1016" fill="#d6bd94" d="M352.713,387.151c-.254.073-.737-.007-.923.219a.282.282,0,0,0-.072.274c.187.463.891.415,1.3.36.491-.067,1.058-.257,1.179-.8C354.249,386.949,353.954,386.79,352.713,387.151Z" data-name="Path 1016" transform="translate(-323.638 -384.381)"/></g><g id="Group_219" data-name="Group 219" transform="translate(317.096 389.515)"><g id="Group_210" data-name="Group 210" transform="translate(4.603)"><path id="Path_1017" fill="#f9eacd" d="M359.037,406.89c3.5-1.887,8.564-4.4,10.5-5.929.957-.757,1.288-1.189,1.29-1.55a14.846,14.846,0,0,0-2.422-1.953c-4.478-2.99-7.736-3.323-9.167-2.634-1.035.5-13.178,6.468-19.569,9.347-5.65,2.545-4.849,5.524-4.849,5.524l7.77,5.051c1.717-.953,2.753-.967,4.58-1.841C350.821,411.156,355.473,408.813,359.037,406.89Z" data-name="Path 1017" transform="translate(-334.779 -394.521)"/><g id="Group_209" data-name="Group 209" transform="translate(7.81 4.89)"><path id="Path_1018" fill="#ead7b5" d="M375.838,406.028a3.392,3.392,0,0,0,1.681-1.591,5.428,5.428,0,0,0-1.087-1.515c0,.361-.332.793-1.29,1.55-1.934,1.53-7,4.042-10.5,5.929-3.563,1.923-8.216,4.266-11.869,6.013-1.826.874-2.863.888-4.58,1.841l2.054,1.984c2.444-1.359,5.025-2.495,7.5-3.789C361.082,414.7,375.471,406.225,375.838,406.028Z" data-name="Path 1018" transform="translate(-348.196 -402.922)"/><path id="Path_1019" fill="#d6bd94" d="M357.5,420.04c6.705-4.009,20.043-11.737,20.944-12.258a1.618,1.618,0,0,0,.552-2.258,3.393,3.393,0,0,1-1.681,1.591c-.368.2-14.756,8.674-18.093,10.423-2.47,1.294-5.052,2.431-7.5,3.789l.963.93S354.064,422.092,357.5,420.04Z" data-name="Path 1019" transform="translate(-349.671 -404.009)"/></g></g><path id="Path_1020" fill="#ead7b5" d="M359.234,414.833a5.986,5.986,0,0,0-1.6-1.429,1.093,1.093,0,0,0-1.555.364c-.283.487,0,.934.267,1.346.379.58.462,1.343.892,1.875a1.4,1.4,0,0,0,2.4-.7A1.579,1.579,0,0,0,359.234,414.833Z" data-name="Path 1020" transform="translate(-339.026 -402.34)"/><path id="Path_1021" fill="#d6bd94" d="M344.207,410.586s-8.713.6-9.4,5.822c-.357,2.705.943,3.96,4.4,6.4,3.648,2.574,9.181,2.743,8.136-2.37A49.246,49.246,0,0,0,344.207,410.586Z" data-name="Path 1021" transform="translate(-330.162 -401.235)"/><path id="Path_1022" fill="#d6bd94" d="M349.641,406.658s8.945,0,14.972-2.538c4.831-2.034,5.822-5.076,5.822-5.076s-1.716,2.035-6.27,4.082c-3.647,1.64-13.734,2.636-13.734,2.636Z" data-name="Path 1022" transform="translate(-336.387 -396.411)"/><path id="Path_1023" fill="#d6bd94" d="M359.188,415.363c-.206-.514-1.112-1.426-1.62-1.23-.185.072-.28.183-.261.353a.563.563,0,0,0,0,.212,4.231,4.231,0,0,0,.443,1.077,1.651,1.651,0,0,0,.751.824.591.591,0,0,0,.745-.287A1.212,1.212,0,0,0,359.188,415.363Z" data-name="Path 1023" transform="translate(-339.587 -402.707)"/><path id="Path_1024" fill="#ead7b5" d="M364.357,413.651a.841.841,0,0,0-.93-.4.318.318,0,0,0-.237.439,1.147,1.147,0,0,0,.125.3c.1.194.208.389.314.582a.346.346,0,0,0,.536.069A.818.818,0,0,0,364.357,413.651Z" data-name="Path 1024" transform="translate(-342.041 -402.34)"/><path id="Path_1025" fill="#ead7b5" d="M369.1,403.127c-.493.135-.984.277-1.477.415a.539.539,0,0,0-.161,1.043,2.12,2.12,0,0,0,1.46-.023,1.214,1.214,0,0,0,.686-1.047A.405.405,0,0,0,369.1,403.127Z" data-name="Path 1025" transform="translate(-343.687 -398.112)"/><path id="Path_1026" fill="#ead7b5" d="M362.184,404.835a3.5,3.5,0,0,0-1.566.24.273.273,0,0,0,0,.466c.446.262,1.315.487,1.708.015A.47.47,0,0,0,362.184,404.835Z" data-name="Path 1026" transform="translate(-340.92 -398.815)"/><path id="Path_1027" fill="#ead7b5" d="M376.683,397.8c-.394.065-.534.435-.9.59-.771.326-1.366-.091-2.051.418a.38.38,0,0,0-.073.566,2.271,2.271,0,0,0,1.938.47c.581-.109,1.591-.429,1.837-1.028A.726.726,0,0,0,376.683,397.8Z" data-name="Path 1027" transform="translate(-346.384 -395.887)"/><path id="Path_1028" fill="#ead7b5" d="M387.906,400.9a2.746,2.746,0,0,0-1.43.334,2.022,2.022,0,0,0-.483.73,1.6,1.6,0,0,0,.183,1.61,1.134,1.134,0,0,0,1.389.361,1.18,1.18,0,0,0,.9-.985C388.673,401.588,388.536,401.139,387.906,400.9Z" data-name="Path 1028" transform="translate(-351.526 -397.179)"/><path id="Path_1029" fill="#d6bd94" d="M387.667,402.663a1.4,1.4,0,0,0-.724.169,1.026,1.026,0,0,0-.244.37.811.811,0,0,0,.093.815.574.574,0,0,0,.7.183.6.6,0,0,0,.453-.5C388.055,403.012,387.986,402.785,387.667,402.663Z" data-name="Path 1029" transform="translate(-351.847 -397.92)"/><path id="Path_1030" fill="#ead7b5" d="M376.853,410.029c-.146.041-1.514.1-1.938.229a.589.589,0,0,0-.2,1.041,1.679,1.679,0,0,0,2.622-.785C377.456,410.227,377.117,409.954,376.853,410.029Z" data-name="Path 1030" transform="translate(-346.77 -400.997)"/><path id="Path_1031" fill="#ead7b5" d="M367.748,414.653a7.384,7.384,0,0,0-.754.861.542.542,0,0,0,.385.654.65.65,0,0,0,.76-.3,2.015,2.015,0,0,0,.348-.875C368.456,414.162,368.076,414.35,367.748,414.653Z" data-name="Path 1031" transform="translate(-343.63 -402.828)"/><path id="Path_1032" fill="#c4a578" d="M344.321,412.107a38.292,38.292,0,0,0-5.5,1.13,5.165,5.165,0,0,0-3.379,5.449c.176,1.012,1.122,2.012,2.425,3.1a14.737,14.737,0,0,0,5.815,2.948c1.556.173,2.792-.212,3.227-1.269.4-.966.437-1.754-.346-4.478C345.388,414.911,344.321,412.107,344.321,412.107Z" data-name="Path 1032" transform="translate(-330.425 -401.871)"/><path id="Path_1033" fill="#b4e20e" d="M344.207,420.536c-.588-2.072-.9-2.968-1.241-4.133-.97-1.054-2.506-.392-3.839-.226-1.542.191-2.514-.7-4.623-.105a8.725,8.725,0,0,1-2.957.527c-1.287.2-.578,1.29-.5,1.372.318.349.135.609-.263.845-.8.47-.8,1.534.482,1.583a3.65,3.65,0,0,0-1.5,1.917c-.133.913.836,1,1.673,1-.417.585-.753,1.341.145,1.616.979.3,1.629-.353,2.418-.638-.328.873-.84,1.785.351,1.931a2.162,2.162,0,0,0,1.6-.42c-.5.946-.419,1.635-.2,1.8,1.1.8,1.848-.4,2.164-.81.244.666.2,1.545,1.378,1.5a1.338,1.338,0,0,0,.894-.6c.315,1.049,1.569.979,2.087-.291a1.032,1.032,0,0,0,.853.7c1.536.024,1.74-3.289,1.744-4.18A16.69,16.69,0,0,0,344.207,420.536Z" data-name="Path 1033" transform="translate(-328.072 -403.422)"/><path id="Path_1034" fill="#a0c600" d="M335.979,418.452c-.372-.045-.877-.186-1.177.129a.6.6,0,0,0-.017.8.791.791,0,0,0,.524.289,1.469,1.469,0,0,0-.623.948.815.815,0,0,0,.784.905,1.947,1.947,0,0,0,1.571-.892c.608-.761.947-1.51,1.872-1.937C337.808,417.977,336.85,418.558,335.979,418.452Z" data-name="Path 1034" transform="translate(-330.116 -404.472)"/><path id="Path_1035" fill="#a0c600" d="M350.364,425.409a6.652,6.652,0,0,0-.41-2.063,30.3,30.3,0,0,1-.884-4.072c-.785.193-2.867.87-2.9,1.918-.012.4.931.859.432,1.411-.07.078-.762.594-.843.669-.484.449-1.421,1.368-.94,1.818.364.342,1.457-.039,1.676.14.309.252.233.622-.225,1.265a1.629,1.629,0,0,0,.223,1.847c.726,1.088,1.087-.416,1.736-.868s1.057-.048,1.6-.588A1.855,1.855,0,0,0,350.364,425.409Z" data-name="Path 1035" transform="translate(-334.316 -404.866)"/><path id="Path_1036" fill="#a0c600" d="M333.218,424.736c-.664.035-1.039.338-.479.716.591.4.611.656,1.288.546a6.2,6.2,0,0,0,2.639-1.466C335.568,423.68,334.245,424.681,333.218,424.736Z" data-name="Path 1036" transform="translate(-329.209 -406.921)"/><path id="Path_1037" fill="#a0c600" d="M340.933,425.765a4.245,4.245,0,0,0-2.467,1.589,1.308,1.308,0,0,0-.359,1.049.716.716,0,0,0,.652.534,1.8,1.8,0,0,0,1.6-.914c.164-.373-.04-.64-.023-1.006A2.2,2.2,0,0,1,340.933,425.765Z" data-name="Path 1037" transform="translate(-331.557 -407.579)"/><g id="Group_211" data-name="Group 211" transform="translate(6.877 17.315)"><path id="Path_1038" fill="#ff4343" d="M338.7,427.769a4.521,4.521,0,0,1,2.717-2.243,8.819,8.819,0,0,1,2.683-.533l.193.714a13.41,13.41,0,0,0-2.8.585A18.744,18.744,0,0,0,338.7,427.769Z" data-name="Path 1038" transform="translate(-338.691 -424.572)"/><path id="Path_1039" fill="#ed2b2b" d="M338.694,427.466a1.944,1.944,0,0,1,.721-1.619,9.693,9.693,0,0,1,2.669-1.578l1.137.575a21.822,21.822,0,0,0-3.064,1.234A5.787,5.787,0,0,0,338.694,427.466Z" data-name="Path 1039" transform="translate(-338.684 -424.269)"/></g><path id="Path_1040" fill="#5e8e11" d="M343.245,429.266a7.425,7.425,0,0,1-1.1.6c-.344.112-.869.532-.456.888.317.274.849.021.849.021s-.159.621.327.7.71-.527.71-.527.185.571.508.533c.536-.062.582-.462.382-.878A7.974,7.974,0,0,0,343.245,429.266Z" data-name="Path 1040" transform="translate(-333 -409.042)"/><g id="Group_212" data-name="Group 212" transform="translate(8.35 17.274)"><path id="Path_1041" fill="#ea8b4b" d="M344.373,425.36a8.977,8.977,0,0,0-2.266,1.192,9.11,9.11,0,0,0-.892.885s3.307-.192,4.363-.36,3.233-.833,3.233-.833l.534-1.022-.266-1.024S345.05,425.043,344.373,425.36Z" data-name="Path 1041" transform="translate(-341.215 -424.198)"/><path id="Path_1042" fill="#d2742e" d="M341.215,427.888s1.66-.483,2.909-.8,5.152-1.807,5.152-1.807l.144,1.02a8.335,8.335,0,0,1-3.283,1.473A34.414,34.414,0,0,1,341.215,427.888Z" data-name="Path 1042" transform="translate(-341.215 -424.649)"/></g><path id="Path_1043" fill="#5e8e11" d="M350.252,430.944a2.381,2.381,0,0,0-.279.952c.019.392.087.852.087.852a1.337,1.337,0,0,0,.66-.889A1,1,0,0,0,350.252,430.944Z" data-name="Path 1043" transform="translate(-336.525 -409.744)"/><g id="Group_213" data-name="Group 213" transform="translate(8.751 17.983)"><path id="Path_1044" fill="#fff" d="M349.546,425.417c-.387.458-1.418,1.664-2.01,2.263-.739.748-5.631,1.043-5.631,1.043s4.232.51,5.3.13c.722-.258,1.852-1.8,2.507-2.761Q349.632,425.754,349.546,425.417Z" data-name="Path 1044" transform="translate(-341.905 -425.417)"/><path id="Path_1045" fill="#fec" d="M349.694,426.452a11.3,11.3,0,0,1-1.89,1.942c-1.5,1.144-5.9.762-5.9.762s3.521,1.463,5.9.047a7.552,7.552,0,0,0,2.074-1.777C349.83,427.1,349.768,426.774,349.694,426.452Z" data-name="Path 1045" transform="translate(-341.905 -425.85)"/></g><path id="Path_1046" fill="#5e8e11" d="M336.465,423.052a12.7,12.7,0,0,1-1.579.247c-.634.037-.962.1-1.1.406-.208.456.569.516.569.516s-.737.357-.215.808c.414.358,1.049-.209,1.049-.209s-.116.7.294.726c.623.033.586-.8.687-1.224S336.465,423.052,336.465,423.052Z" data-name="Path 1046" transform="translate(-329.746 -406.445)"/><g id="Group_214" data-name="Group 214" transform="translate(3.016 13.137)"><path id="Path_1047" fill="#ea8b4b" d="M339.983,417.173s-1.232-.509-5.453,1.006a10.673,10.673,0,0,0-2.477,1.672,3.975,3.975,0,0,0,1.457.671,5.134,5.134,0,0,0,2.508-.671C336.841,419.47,339.983,417.173,339.983,417.173Z" data-name="Path 1047" transform="translate(-332.052 -417.091)"/><path id="Path_1048" fill="#d2742e" d="M332.052,420.185a6.066,6.066,0,0,0,1.935.053c.721-.172,2.772-1.531,3.421-1.742s2.046-.606,2.046-.606-3.133,2.363-4.511,2.739S333.135,421,332.052,420.185Z" data-name="Path 1048" transform="translate(-332.052 -417.425)"/><path id="Path_1049" fill="#d2742e" d="M333.463,420.721a5.66,5.66,0,0,0,1.4-.222,7.385,7.385,0,0,0,1.65-.808s-.735.161-1.294.317C334.771,420.133,333.463,420.721,333.463,420.721Z" data-name="Path 1049" transform="translate(-332.642 -418.177)"/><path id="Path_1050" fill="#d2742e" d="M336.509,419.145a7.359,7.359,0,0,0,1.371-.172,7.834,7.834,0,0,0,1.073-.377A4.972,4.972,0,0,0,336.509,419.145Z" data-name="Path 1050" transform="translate(-333.915 -417.719)"/></g><g id="Group_215" data-name="Group 215" transform="translate(6.278 12.926)"><path id="Path_1051" fill="#f7d48d" d="M346.634,417.382a10.883,10.883,0,0,0-2.649.138c-2.675.31-4.723,1.6-5.021,2.463s-.654,1.843-.654,1.843l.228.85s.693-3.192,2.925-3.963a15.9,15.9,0,0,1,5.467-.4A8.009,8.009,0,0,0,346.634,417.382Z" data-name="Path 1051" transform="translate(-337.929 -416.984)"/><path id="Path_1052" fill="#fff" d="M346.271,416.783a13.187,13.187,0,0,0-5.826.8,4.221,4.221,0,0,0-2.771,4.384l.59-.069s-.093-2.488,3.3-3.943a11.567,11.567,0,0,1,4.9-.467A4.606,4.606,0,0,0,346.271,416.783Z" data-name="Path 1052" transform="translate(-337.655 -416.728)"/><path id="Path_1053" fill="#fff" d="M337.688,425.675v.645l.589-.19v-.524Z" data-name="Path 1053" transform="translate(-337.669 -420.439)"/></g><path id="Path_1054" fill="#feb52c" d="M345.2,427.26l.413.443a38.643,38.643,0,0,1,3.475-4.024c.881-.654,1.477-1.2,1.477-1.2l-.2-.922a20.883,20.883,0,0,0-2.4,2.193A22.619,22.619,0,0,0,345.2,427.26Z" data-name="Path 1054" transform="translate(-334.531 -405.819)"/><path id="Path_1055" fill="#ffd654" d="M349.5,420.323a23.818,23.818,0,0,0-2.726,2.375c-.8.843-2.956,4.128-2.956,4.128l.8-.081a38.974,38.974,0,0,1,3.015-3.789c1.015-.967,2.147-1.918,2.147-1.918Z" data-name="Path 1055" transform="translate(-333.953 -405.305)"/><g id="Group_216" data-name="Group 216" transform="translate(6.527 15.431)"><path id="Path_1056" fill="#ed2b2b" d="M347.457,421.634l-8.967-.6-.407.041a6.271,6.271,0,0,0,3.007,3.151,6.752,6.752,0,0,0,5.151-.054A4.427,4.427,0,0,0,347.857,423,11.042,11.042,0,0,0,347.457,421.634Z" data-name="Path 1056" transform="translate(-338.084 -421.032)"/><path id="Path_1057" fill="#ff4343" d="M347.743,421.618l-8.96-.586a8.048,8.048,0,0,0,1.623,2.035,6.575,6.575,0,0,0,4.935.961,4.966,4.966,0,0,0,2.68-1.538Q347.9,422.047,347.743,421.618Z" data-name="Path 1057" transform="translate(-338.376 -421.032)"/><path id="Path_1058" fill="#ff6969" d="M342.972,422.1a3.6,3.6,0,0,0-2.08.144c-.363.251,1.207,1.709,2.877,1.894a6.6,6.6,0,0,0,3.379-.414c.831-.294,1.72-1.166.8-1.377-.647-.148-2.494.613-3.373.5S343.859,422.379,342.972,422.1Z" data-name="Path 1058" transform="translate(-339.236 -421.442)"/><path id="Path_1059" fill="#ed2b2b" d="M343.774,422.879a6.817,6.817,0,0,0-.961.285c-.293.136.263.506.632.249S343.774,422.879,343.774,422.879Z" data-name="Path 1059" transform="translate(-340.026 -421.804)"/><path id="Path_1060" fill="#ed2b2b" d="M345.233,423.588s-.548.427-.557.608.367.295.519.019A.892.892,0,0,0,345.233,423.588Z" data-name="Path 1060" transform="translate(-340.839 -422.1)"/><path id="Path_1061" fill="#ed2b2b" d="M347.015,424a.7.7,0,0,0-.173.607c.038.209.441.005.427-.151A1.371,1.371,0,0,0,347.015,424Z" data-name="Path 1061" transform="translate(-341.739 -422.272)"/><path id="Path_1062" fill="#ed2b2b" d="M348.649,423.833s-.135.651.015.774c.1.085.573-.1.436-.307A2.822,2.822,0,0,0,348.649,423.833Z" data-name="Path 1062" transform="translate(-342.476 -422.203)"/><path id="Path_1063" fill="#ed2b2b" d="M349.789,423.583a2.511,2.511,0,0,1,.714.394c.136.172.031.522-.272.207A2.612,2.612,0,0,1,349.789,423.583Z" data-name="Path 1063" transform="translate(-342.976 -422.098)"/><path id="Path_1064" fill="#ed2b2b" d="M350.8,423.14s.6-.062.779.168.168.532-.164.319A4.451,4.451,0,0,1,350.8,423.14Z" data-name="Path 1064" transform="translate(-343.401 -421.91)"/></g><g id="Group_217" data-name="Group 217" transform="translate(0 11.424)"><path id="Path_1065" fill="#ffd654" d="M341.185,414.148a45.217,45.217,0,0,0-9.326,1.924c-3.829,1.487-4.988,3.09-4.988,3.09a55.028,55.028,0,0,1,8.735-3.005,59.289,59.289,0,0,1,6.076-.761C341.531,414.975,341.364,414.559,341.185,414.148Z" data-name="Path 1065" transform="translate(-326.87 -414.148)"/><path id="Path_1066" fill="#feb52c" d="M341.56,415.725a71.093,71.093,0,0,0-7.129.98,29.632,29.632,0,0,0-7.561,3.116,37.758,37.758,0,0,1,3.749-1.5,46.658,46.658,0,0,1,7.166-1.62c1.147-.137,2.659-.253,4-.339C341.712,416.149,341.64,415.936,341.56,415.725Z" data-name="Path 1066" transform="translate(-326.87 -414.807)"/></g><path id="Path_1067" fill="#5e8e11" d="M345.28,418.321s-1.546.086-1.736-.469.41-.532.41-.532-.307-.81.155-.932.815.357.815.357.6-.484.965-.272.118.6-.05.847S345.28,418.321,345.28,418.321Z" data-name="Path 1067" transform="translate(-333.823 -403.652)"/><g id="Group_218" data-name="Group 218" transform="translate(9.277 13.354)"><path id="Path_1068" fill="#ea8b4b" d="M348.545,417.464a10.276,10.276,0,0,0-3.188.57,4.094,4.094,0,0,0-2.266,2.112,3.342,3.342,0,0,0-.211,2.039s3.581-1.906,4.381-2.413a11.3,11.3,0,0,0,1.619-1.327Z" data-name="Path 1068" transform="translate(-342.808 -417.464)"/><path id="Path_1069" fill="#d2742e" d="M342.93,422.788a27.651,27.651,0,0,0,4.006-1.712A10.815,10.815,0,0,1,349.195,420l-.331-1.094S343.79,421.982,342.93,422.788Z" data-name="Path 1069" transform="translate(-342.859 -418.067)"/><path id="Path_1070" fill="#d2742e" d="M344.47,421.5s.833.04,1.278,0a4.354,4.354,0,0,0,1.161-.4,6.829,6.829,0,0,0-1.161.026A9.454,9.454,0,0,0,344.47,421.5Z" data-name="Path 1070" transform="translate(-343.503 -418.978)"/><path id="Path_1071" fill="#d2742e" d="M345.885,420.015a6.272,6.272,0,0,0,1.412-.043c.4-.074,1.211-.271,1.211-.271s-.122-.126-1.008-.161A2.957,2.957,0,0,0,345.885,420.015Z" data-name="Path 1071" transform="translate(-344.094 -418.331)"/><path id="Path_1072" fill="#d2742e" d="M348.837,418.662a7.472,7.472,0,0,0,1.26.037,9.545,9.545,0,0,0,.976-.136,4.747,4.747,0,0,0-1.026-.153A5.1,5.1,0,0,0,348.837,418.662Z" data-name="Path 1072" transform="translate(-345.328 -417.859)"/></g><path id="Path_1073" fill="#ff4343" d="M334.04,412.961l-.224.316a12.844,12.844,0,0,0,5.5,1.293,22.563,22.563,0,0,0,5.066-.2l-.3-.722Z" data-name="Path 1073" transform="translate(-329.773 -402.228)"/><path id="Path_1074" fill="#ed2b2b" d="M334.2,412.961a16.483,16.483,0,0,0,6.1,1.273,36.314,36.314,0,0,0,4.109-.191l-.367-.926a36.3,36.3,0,0,1-4.836.189C337.156,413.192,334.2,412.961,334.2,412.961Z" data-name="Path 1074" transform="translate(-329.934 -402.228)"/><path id="Path_1075" fill="#ffe292" d="M344.622,431.357l-.805.081.653.467.564-.1Z" data-name="Path 1075" transform="translate(-333.953 -409.917)"/><path id="Path_1076" fill="#5e8e11" d="M340.043,426.206a4,4,0,0,0-.78,0,1.973,1.973,0,0,0-.852.463,1.8,1.8,0,0,0,1.067,0A1.126,1.126,0,0,0,340.043,426.206Z" data-name="Path 1076" transform="translate(-331.693 -407.755)"/><path id="Path_1077" fill="#5e8e11" d="M337.855,417.736s.206.626.746.7,1.21.079,1.21.079a2.413,2.413,0,0,0-.755-.592A3.888,3.888,0,0,0,337.855,417.736Z" data-name="Path 1077" transform="translate(-331.461 -404.224)"/><path id="Path_1078" fill="#5e8e11" d="M354.7,427.378c-.076.023-.664.157-.79.547a9.6,9.6,0,0,0-.219,1.36,8.6,8.6,0,0,0,.868-.672,1.2,1.2,0,0,0,.278-.587Z" data-name="Path 1078" transform="translate(-338.08 -408.253)"/><path id="Path_1079" fill="#5e8e11" d="M348.837,414.84a.916.916,0,0,0,.554.728,3.757,3.757,0,0,0,.942.155,2.5,2.5,0,0,0-.556-.585A1.163,1.163,0,0,0,348.837,414.84Z" data-name="Path 1079" transform="translate(-336.051 -403.007)"/><path id="Path_1080" fill="#d6bd94" d="M376.1,399.129c-.254.073-.737-.007-.923.219a.282.282,0,0,0-.073.274c.188.463.891.415,1.3.36.491-.067,1.058-.257,1.179-.8C377.634,398.927,377.339,398.769,376.1,399.129Z" data-name="Path 1080" transform="translate(-347.023 -396.359)"/></g></g></svg>