<svg xmlns="http://www.w3.org/2000/svg" width="48" height="33.357" viewBox="0 0 48 33.357"><g id="Group_159" data-name="Group 159" transform="translate(-14.706 -260.893)"><g id="Group_125" data-name="Group 125" transform="translate(14.706 266.697)"><ellipse id="Ellipse_17" cx="23.789" cy="12.654" fill="#a34843" data-name="Ellipse 17" rx="23.789" ry="12.654" transform="translate(0.01 2.246)"/><rect id="Rectangle_36" width="47.558" height="2.497" fill="#a34843" data-name="Rectangle 36" transform="translate(0.02 12.654)"/><ellipse id="Ellipse_18" cx="23.789" cy="12.654" fill="#c15f5f" data-name="Ellipse 18" rx="23.789" ry="12.654" transform="translate(0 0)"/><g id="Group_124" data-name="Group 124" transform="translate(2.014 1.318)"><path id="Path_399" fill="#a34843" d="M40.3,296.5c-11.995,0-21.753-4.937-21.753-11s9.758-11,21.753-11,21.753,4.936,21.753,11S52.3,296.5,40.3,296.5Zm0-21.476c-11.7,0-21.22,4.7-21.22,10.472s9.52,10.473,21.22,10.473,21.22-4.7,21.22-10.473S52.005,275.024,40.3,275.024Z" data-name="Path 399" transform="translate(-18.552 -274.492)"/></g></g><g id="Group_136" data-name="Group 136" transform="translate(17.01 262.197)"><path id="Path_400" fill="#ffe3a6" d="M41.5,285.189v1.877s-.513,1.808-3.965,3.426c-4.11,1.928-9.509,2.793-14.157.8-3.679-1.577-4.276-2.527-4.276-2.527l.439-.916Z" data-name="Path 400" transform="translate(-19.106 -273.77)"/><path id="Path_401" fill="#ffe3a6" d="M19.885,278.394l-.4-.512a35.457,35.457,0,0,1,10.247-10.959c5.939-4.245,7.365-3.487,7.365-3.487l.867.724Z" data-name="Path 401" transform="translate(-19.288 -263.384)"/><path id="Path_402" fill="#ffc648" d="M20.246,283.772l16.1-9.1s10.853,5.011,2.674,9.7C29.056,290.085,20.246,283.772,20.246,283.772Z" data-name="Path 402" transform="translate(-19.649 -268.761)"/><g id="Group_126" data-name="Group 126" transform="translate(10.783 9.999)"><rect id="Rectangle_37" width="12.422" height=".671" fill="#ed2b2b" data-name="Rectangle 37" transform="translate(0 3.271)"/><ellipse id="Ellipse_19" cx="6.211" cy="3.304" fill="#ed2b2b" data-name="Ellipse 19" rx="6.211" ry="3.304" transform="translate(0 0.52)"/><path id="Path_403" fill="#ff6969" d="M52.12,285.783c0,1.824-2.781,3.3-6.211,3.3s-6.211-1.479-6.211-3.3,2.781-3.3,6.211-3.3S52.12,283.958,52.12,285.783Z" data-name="Path 403" transform="translate(-39.698 -282.479)"/><path id="Path_404" fill="#ff4343" d="M52.062,286.256c0,1.537-2.491,2.784-5.563,2.784s-5.563-1.246-5.563-2.784,2.491-2.784,5.563-2.784S52.062,284.718,52.062,286.256Z" data-name="Path 404" transform="translate(-40.287 -282.952)"/><path id="Path_405" fill="#ed2b2b" d="M43.515,287.958a1.618,1.618,0,0,1-.051-3.021,8.208,8.208,0,0,1,5.369-.691c.8.19-.045.929-.988,1a7.549,7.549,0,0,0-2.049.421c-.722.316-1,.792-.977,1.036C44.863,287.15,43.968,287.944,43.515,287.958Z" data-name="Path 405" transform="translate(-41.005 -283.239)"/><path id="Path_406" fill="#ed2b2b" d="M47.241,287.978c-.573.3-1.454,1.093-.472,1.38a8.249,8.249,0,0,0,5.712-.452c1.511-.714,1.871-1.89.989-2.717-.64-.6-1.276-.652-1.634-.419-.833.541-.1,1.5-1.721,1.821C49.162,287.78,47.892,287.635,47.241,287.978Z" data-name="Path 406" transform="translate(-42.856 -283.986)"/><path id="Path_407" fill="#ff6969" d="M52.312,285.22s.433-.564-.09-.551C51.878,284.677,52.312,285.22,52.312,285.22Z" data-name="Path 407" transform="translate(-45.601 -283.522)"/><path id="Path_408" fill="#ff6969" d="M50.807,285.281s0-.716-.559-.628C49.881,284.71,50.807,285.281,50.807,285.281Z" data-name="Path 408" transform="translate(-44.682 -283.511)"/><path id="Path_409" fill="#ff6969" d="M49.042,285.5s-.362-.651-.767-.522S49.042,285.5,49.042,285.5Z" data-name="Path 409" transform="translate(-43.743 -283.661)"/><path id="Path_410" fill="#ff6969" d="M47.2,286.061s-.429-.775-.986-.544S47.2,286.061,47.2,286.061Z" data-name="Path 410" transform="translate(-42.746 -283.906)"/><path id="Path_411" fill="#ff6969" d="M45.72,287s-.68-.809-1.3-.409C44,286.854,45.72,287,45.72,287Z" data-name="Path 411" transform="translate(-41.915 -284.383)"/><path id="Path_412" fill="#ff6969" d="M44.964,288.2s-1-.344-1.334-.1S44.254,288.67,44.964,288.2Z" data-name="Path 412" transform="translate(-41.538 -285.113)"/><path id="Path_413" fill="#ff6969" d="M45.1,289.365a2.536,2.536,0,0,0-1.031.253c-.164.112,0,.384.329.32A.888.888,0,0,0,45.1,289.365Z" data-name="Path 413" transform="translate(-41.749 -285.759)"/><path id="Path_414" fill="#ff6969" d="M56.783,286.735a1.091,1.091,0,0,1,.716-.26c.4.023.6.284.118.317A2.876,2.876,0,0,1,56.783,286.735Z" data-name="Path 414" transform="translate(-47.836 -284.382)"/><path id="Path_415" fill="#ff6969" d="M48.256,290.4a2.242,2.242,0,0,0-.63.522c-.135.228.388.464.548.051S48.256,290.4,48.256,290.4Z" data-name="Path 415" transform="translate(-43.463 -286.25)"/><path id="Path_416" fill="#ff6969" d="M50.1,290.4a.856.856,0,0,0-.175.573c.017.354.475.438.444,0A.693.693,0,0,0,50.1,290.4Z" data-name="Path 416" transform="translate(-44.571 -286.25)"/><path id="Path_417" fill="#ff6969" d="M51.78,290.222a2.769,2.769,0,0,0,.1.664c.093.286.758.438.489-.068A1.138,1.138,0,0,0,51.78,290.222Z" data-name="Path 417" transform="translate(-45.453 -286.167)"/><path id="Path_418" fill="#ff6969" d="M53.6,290.09a2.357,2.357,0,0,0,.538.733c.354.312.725.076.4-.278A1.884,1.884,0,0,0,53.6,290.09Z" data-name="Path 418" transform="translate(-46.32 -286.104)"/><path id="Path_419" fill="#ff6969" d="M55.19,289.49a3.208,3.208,0,0,0,.775.668c.421.236.843.008.337-.286A3.51,3.51,0,0,0,55.19,289.49Z" data-name="Path 419" transform="translate(-47.077 -285.819)"/><path id="Path_420" fill="#ff6969" d="M56.364,288.579a4.05,4.05,0,0,0,1.163.555c.447.07.733-.4.228-.489A9.923,9.923,0,0,0,56.364,288.579Z" data-name="Path 420" transform="translate(-47.637 -285.384)"/><path id="Path_421" fill="#ff6969" d="M56.9,287.709a3.048,3.048,0,0,1,.965-.15c.362.042.674.286.286.3A7.892,7.892,0,0,1,56.9,287.709Z" data-name="Path 421" transform="translate(-47.893 -284.896)"/></g><g id="Group_127" data-name="Group 127" transform="translate(10.661 11.621)"><path id="Path_422" fill="#fff" d="M48.882,285.651l-.594-.076s-1.614,1.923-2.45,2.77-6.374,1.18-6.374,1.18,4.79.578,6,.147S48.882,285.651,48.882,285.651Z" data-name="Path 422" transform="translate(-39.464 -285.575)"/><path id="Path_423" fill="#fec" d="M39.464,289.595s3.986,1.656,6.676.053a7.068,7.068,0,0,0,3.275-3.623l-.533-.3a14.734,14.734,0,0,1-2.742,3.011C44.439,290.027,39.464,289.595,39.464,289.595Z" data-name="Path 423" transform="translate(-39.464 -285.645)"/></g><path id="Path_424" fill="#f4b12c" d="M20.246,278.8l16.1-9.1s5.96-8.779-2.218-4.091C24.163,271.32,20.246,278.8,20.246,278.8Z" data-name="Path 424" transform="translate(-19.649 -263.787)"/><path id="Path_425" fill="#d3880f" d="M23.716,279.912s7.634-8.228,11.257-10.243,2.7-.687,1.827,2.9C33.146,274.922,23.716,279.912,23.716,279.912Z" data-name="Path 425" opacity=".5" transform="translate(-21.302 -265.928)"/><g id="Group_128" data-name="Group 128" transform="translate(3.687 9)"><path id="Path_426" fill="#ff871a" d="M26.147,287.516s1.218-1.879,5.462-3.779,13.548-3.289,13.965-3.159c.906.282.825.68.837,1.229s-2.157.416-2.157.416a74.418,74.418,0,0,0-8.405,1.4A62.3,62.3,0,0,0,26.147,287.516Z" data-name="Path 426" transform="translate(-26.147 -280.57)"/><path id="Path_427" fill="#e2660a" d="M26.147,288.38a33.533,33.533,0,0,1,8.369-3.955,110.719,110.719,0,0,1,11.917-2.042l-.061.856s-5.117.487-8.065.991a52.866,52.866,0,0,0-8.007,2.241A42.766,42.766,0,0,0,26.147,288.38Z" data-name="Path 427" transform="translate(-26.147 -281.434)"/></g><g id="Group_130" data-name="Group 130" transform="translate(7.782 11.19)"><g id="Group_129" data-name="Group 129"><path id="Path_428" fill="#71aa21" d="M36.055,291.5s-1.777-3.052,2.035-4.972a7.925,7.925,0,0,1,6.967-.226l1.206-.65a10.351,10.351,0,0,0-9.1.294c-4.978,2.508-2.658,6.493-2.658,6.493Z" data-name="Path 428" transform="translate(-33.966 -284.752)"/><path id="Path_429" fill="#bed134" d="M39.614,287.314c-3.812,1.92-2.035,4.972-2.035,4.972l1.783-1.03a2.662,2.662,0,0,1,1.74-2.266,5.833,5.833,0,0,1,3.259-.619l2.22-1.282A7.925,7.925,0,0,0,39.614,287.314Z" data-name="Path 429" transform="translate(-35.49 -285.536)"/></g><path id="Path_430" fill="#dce842" d="M46.32,290.051a4.655,4.655,0,0,0-3.4.5c-2.061,1.058-1.6,2.389-1.6,2.389a5.89,5.89,0,0,1,2.277-2.055A21.33,21.33,0,0,1,46.32,290.051Z" data-name="Path 430" transform="translate(-37.449 -287.217)"/></g><g id="Group_131" data-name="Group 131" transform="translate(2.632 6.449)"><path id="Path_431" fill="#ff871a" d="M24.132,284.012s1.08-1.961,5.177-4.16,13.278-4.25,13.7-4.15c.924.216.872.618.923,1.166s-2.121.569-2.121.569a74.416,74.416,0,0,0-8.284,1.995A62.3,62.3,0,0,0,24.132,284.012Z" data-name="Path 431" transform="translate(-24.132 -275.698)"/><path id="Path_432" fill="#e2660a" d="M24.132,284.813a33.542,33.542,0,0,1,8.065-4.544,110.669,110.669,0,0,1,11.74-2.889v.857s-5.069.852-7.973,1.566a52.779,52.779,0,0,0-7.826,2.808A42.774,42.774,0,0,0,24.132,284.813Z" data-name="Path 432" transform="translate(-24.132 -276.499)"/></g><g id="Group_132" data-name="Group 132" transform="translate(4.958 10.67)"><path id="Path_433" fill="#f7d48d" d="M29.89,289.8v.593s.785-3.613,3.311-4.485,6.885-.4,6.885-.4l.093-.593s-1.1-.71-4.123-.359-5.346,1.809-5.683,2.788A13.336,13.336,0,0,0,29.89,289.8Z" data-name="Path 433" transform="translate(-29.201 -284.094)"/><path id="Path_434" fill="#fec" d="M28.6,289.545a4.777,4.777,0,0,1,3.136-4.962,15.153,15.153,0,0,1,7.744-.556l.075.556s-4.151-.612-6.557.422c-3.837,1.647-3.732,4.463-3.732,4.463Z" data-name="Path 434" transform="translate(-28.575 -283.759)"/><path id="Path_435" fill="#fff" d="M28.616,294.739v.731l.667-.215v-.593Z" data-name="Path 435" transform="translate(-28.594 -288.952)"/></g><g id="Group_134" data-name="Group 134" transform="translate(9.961 5.108)"><g id="Group_133" data-name="Group 133"><path id="Path_436" fill="#71aa21" d="M40.217,279.888s-1.778-3.052,2.034-4.972a7.927,7.927,0,0,1,6.968-.225l1.205-.651a10.351,10.351,0,0,0-9.1.295c-4.979,2.507-2.658,6.493-2.658,6.493Z" data-name="Path 436" transform="translate(-38.128 -273.139)"/><path id="Path_437" fill="#bed134" d="M43.775,275.7c-3.812,1.92-2.034,4.972-2.034,4.972l1.783-1.03a2.661,2.661,0,0,1,1.74-2.266,5.824,5.824,0,0,1,3.259-.62l2.22-1.282A7.927,7.927,0,0,0,43.775,275.7Z" data-name="Path 437" transform="translate(-39.651 -273.922)"/></g><path id="Path_438" fill="#dce842" d="M50.482,278.438a4.657,4.657,0,0,0-3.4.5c-2.061,1.059-1.6,2.39-1.6,2.39a5.887,5.887,0,0,1,2.276-2.055A21.329,21.329,0,0,1,50.482,278.438Z" data-name="Path 438" transform="translate(-41.611 -275.604)"/></g><path id="Path_439" fill="#ffe3a6" d="M51.457,277.6a2.081,2.081,0,0,0-1.2-1.208,2.027,2.027,0,0,0-2.321,1.35c-.194.48-.346.9.1,1.263a1.223,1.223,0,0,0,.788.2,4.811,4.811,0,0,1,1.285.291,1.311,1.311,0,0,0,1.474-.29C51.908,278.772,51.647,278.04,51.457,277.6Z" data-name="Path 439" transform="translate(-32.75 -269.547)"/><path id="Path_440" fill="#fff" d="M50.605,277.55c-.309-.439-1.3.267-1.295.7,0,.352.262.483.57.539.391.072.786.167,1.071-.186C51.206,278.291,50.819,277.852,50.605,277.55Z" data-name="Path 440" opacity=".5" transform="translate(-33.494 -270.065)"/><path id="Path_441" fill="#ffe3a6" d="M38.906,288.818a1.1,1.1,0,0,0-1.294.239,2.745,2.745,0,0,0-.724,1.142.386.386,0,0,0,.2.344c.679.3,2.087.2,2.31-.682A.977.977,0,0,0,38.906,288.818Z" data-name="Path 441" transform="translate(-27.576 -275.44)"/><path id="Path_442" fill="#ffe3a6" d="M43.316,287.058c-.8.875.411,1.852,1.225,1.988.839.141,2.182-.295,2.178-1.354C46.715,286.676,43.725,286.609,43.316,287.058Z" data-name="Path 442" transform="translate(-30.514 -274.535)"/><path id="Path_443" fill="#fff" d="M45.328,287.424a.558.558,0,0,0-.667.212c-.334.511.459.883.832,1.006a.753.753,0,0,0,1.049-.695C46.491,287.334,45.788,287.311,45.328,287.424Z" data-name="Path 443" opacity=".5" transform="translate(-31.241 -274.81)"/><g id="Group_135" data-name="Group 135" transform="translate(2.909 5.811)"><path id="Path_444" fill="#ed2b2b" d="M24.948,282.316l-.287.363s2.752,1.068,4.931.027a7.643,7.643,0,0,0,4-4.237,6.553,6.553,0,0,0,0-3.988Z" data-name="Path 444" transform="translate(-24.661 -274.481)"/><path id="Path_445" fill="#ff4343" d="M25.209,282.588l8.289-7.537a6.085,6.085,0,0,1-.693,4.55,7.44,7.44,0,0,1-4.661,3.264A9.112,9.112,0,0,1,25.209,282.588Z" data-name="Path 445" transform="translate(-24.922 -274.753)"/><path id="Path_446" fill="#ff6969" d="M29.848,281.619a4.074,4.074,0,0,0-1.518,1.808c-.08.492,2.34.36,3.8-.855a7.482,7.482,0,0,0,2.319-3.079c.413-.908.4-2.317-.5-1.73-.628.411-1.46,2.513-2.246,3.137S30.772,281.116,29.848,281.619Z" data-name="Path 446" transform="translate(-26.408 -275.979)"/><path id="Path_447" fill="#ed2b2b" d="M31.408,285.859a7.762,7.762,0,0,0-.523,1.008c-.12.346.619.184.7-.319A.69.69,0,0,0,31.408,285.859Z" data-name="Path 447" transform="translate(-27.619 -279.901)"/><path id="Path_448" fill="#ed2b2b" d="M33.485,285.475s-.083.781.058.932.528-.067.424-.407A1.008,1.008,0,0,0,33.485,285.475Z" data-name="Path 448" transform="translate(-28.852 -279.718)"/><path id="Path_449" fill="#ed2b2b" d="M35.2,284.463a.794.794,0,0,0,.357.617c.2.134.351-.354.213-.466A1.55,1.55,0,0,0,35.2,284.463Z" data-name="Path 449" transform="translate(-29.683 -279.236)"/><path id="Path_450" fill="#ed2b2b" d="M36.4,282.9s.424.622.642.6c.15-.017.369-.545.093-.6A3.2,3.2,0,0,0,36.4,282.9Z" data-name="Path 450" transform="translate(-30.252 -278.481)"/><path id="Path_451" fill="#ed2b2b" d="M37.133,281.459a2.852,2.852,0,0,1,.882-.272c.247.025.449.384-.045.384A2.96,2.96,0,0,1,37.133,281.459Z" data-name="Path 451" transform="translate(-30.602 -277.674)"/><path id="Path_452" fill="#ed2b2b" d="M37.624,279.947s.425-.541.75-.5.566.281.13.384A5.047,5.047,0,0,1,37.624,279.947Z" data-name="Path 452" transform="translate(-30.836 -276.844)"/></g><path id="Path_453" fill="#5e8e11" d="M54.114,278.756a2.729,2.729,0,0,0-2.363,1.406,3.079,3.079,0,0,0-.148,2.572,5.907,5.907,0,0,0,1.761-2.159A18.393,18.393,0,0,1,54.114,278.756Z" data-name="Path 453" transform="translate(-34.486 -270.706)"/><path id="Path_454" fill="#5e8e11" d="M45.553,274.7a5.521,5.521,0,0,0-1.891,1.544,1.174,1.174,0,0,0,.023,1.3s1.573-.272,1.783-1.089A5.276,5.276,0,0,0,45.553,274.7Z" data-name="Path 454" transform="translate(-30.719 -268.774)"/><path id="Path_455" fill="#5e8e11" d="M28.332,289.438s1.845-.067,2.427.734,1.305,1.961,1.305,1.961-1.638.281-2.395-.486A8.119,8.119,0,0,1,28.332,289.438Z" data-name="Path 455" transform="translate(-23.501 -275.794)"/><path id="Path_456" fill="#bed134" d="M57.381,280.024a2.64,2.64,0,0,0-.727,1.626,11.369,11.369,0,0,0,.089,1.679,5.614,5.614,0,0,0,1.308-1.679C58.253,280.973,57.381,280.024,57.381,280.024Z" data-name="Path 456" transform="translate(-36.99 -271.31)"/></g><g id="Group_147" data-name="Group 147" transform="translate(38.733 260.893)"><path id="Path_457" fill="#ffe3a6" d="M82.986,282.7v1.877s-.514,1.808-3.965,3.426c-4.11,1.928-9.509,2.793-14.157.8-3.679-1.576-4.276-2.527-4.276-2.527l.439-.916Z" data-name="Path 457" transform="translate(-60.588 -271.279)"/><path id="Path_458" fill="#ffe3a6" d="M61.367,275.9l-.4-.512a35.457,35.457,0,0,1,10.247-10.959c5.939-4.245,7.365-3.487,7.365-3.487l.867.724Z" data-name="Path 458" transform="translate(-60.77 -260.893)"/><path id="Path_459" fill="#ffc648" d="M61.728,281.281l16.1-9.1s10.853,5.011,2.674,9.7C70.538,287.594,61.728,281.281,61.728,281.281Z" data-name="Path 459" transform="translate(-61.131 -266.27)"/><g id="Group_137" data-name="Group 137" transform="translate(10.783 9.999)"><rect id="Rectangle_38" width="12.422" height=".671" fill="#ed2b2b" data-name="Rectangle 38" transform="translate(0 3.27)"/><path id="Path_460" fill="#ed2b2b" d="M93.6,284.285c0,1.824-2.781,3.3-6.211,3.3s-6.211-1.479-6.211-3.3,2.781-3.3,6.211-3.3S93.6,282.46,93.6,284.285Z" data-name="Path 460" transform="translate(-81.18 -280.461)"/><path id="Path_461" fill="#ff6969" d="M93.6,283.292c0,1.824-2.781,3.3-6.211,3.3s-6.211-1.479-6.211-3.3,2.781-3.3,6.211-3.3S93.6,281.467,93.6,283.292Z" data-name="Path 461" transform="translate(-81.18 -279.988)"/><path id="Path_462" fill="#ff4343" d="M93.544,283.765c0,1.538-2.491,2.784-5.563,2.784s-5.563-1.246-5.563-2.784,2.491-2.784,5.563-2.784S93.544,282.227,93.544,283.765Z" data-name="Path 462" transform="translate(-81.769 -280.461)"/><path id="Path_463" fill="#ed2b2b" d="M85,285.467a1.618,1.618,0,0,1-.05-3.021,8.206,8.206,0,0,1,5.369-.691c.8.19-.045.929-.988,1a7.55,7.55,0,0,0-2.049.421c-.722.316-1,.792-.977,1.036C86.345,284.658,85.45,285.452,85,285.467Z" data-name="Path 463" transform="translate(-82.487 -280.748)"/><path id="Path_464" fill="#ed2b2b" d="M88.723,285.487c-.573.3-1.454,1.093-.472,1.38a8.249,8.249,0,0,0,5.712-.452c1.511-.714,1.871-1.89.989-2.717-.64-.6-1.276-.652-1.634-.419-.833.541-.1,1.5-1.721,1.821C90.643,285.288,89.374,285.144,88.723,285.487Z" data-name="Path 464" transform="translate(-84.338 -281.495)"/><path id="Path_465" fill="#ff6969" d="M93.794,282.729s.433-.564-.09-.551C93.361,282.186,93.794,282.729,93.794,282.729Z" data-name="Path 465" transform="translate(-87.083 -281.031)"/><path id="Path_466" fill="#ff6969" d="M92.289,282.79s0-.716-.559-.628C91.363,282.219,92.289,282.79,92.289,282.79Z" data-name="Path 466" transform="translate(-86.164 -281.02)"/><path id="Path_467" fill="#ff6969" d="M90.524,283.009s-.362-.651-.767-.522S90.524,283.009,90.524,283.009Z" data-name="Path 467" transform="translate(-85.225 -281.17)"/><path id="Path_468" fill="#ff6969" d="M88.685,283.57s-.429-.774-.986-.544S88.685,283.57,88.685,283.57Z" data-name="Path 468" transform="translate(-84.228 -281.415)"/><path id="Path_469" fill="#ff6969" d="M87.2,284.5s-.68-.809-1.3-.409C85.484,284.363,87.2,284.5,87.2,284.5Z" data-name="Path 469" transform="translate(-83.397 -281.892)"/><path id="Path_470" fill="#ff6969" d="M86.446,285.707s-1-.344-1.334-.1S85.736,286.179,86.446,285.707Z" data-name="Path 470" transform="translate(-83.02 -282.622)"/><path id="Path_471" fill="#ff6969" d="M86.582,286.874a2.536,2.536,0,0,0-1.031.253c-.164.112,0,.384.329.32A.889.889,0,0,0,86.582,286.874Z" data-name="Path 471" transform="translate(-83.231 -283.268)"/><path id="Path_472" fill="#ff6969" d="M98.265,284.244a1.091,1.091,0,0,1,.716-.26c.4.023.6.284.118.317A2.876,2.876,0,0,1,98.265,284.244Z" data-name="Path 472" transform="translate(-89.318 -281.891)"/><path id="Path_473" fill="#ff6969" d="M89.738,287.9a2.242,2.242,0,0,0-.63.522c-.135.228.388.464.548.051S89.738,287.9,89.738,287.9Z" data-name="Path 473" transform="translate(-84.945 -283.759)"/><path id="Path_474" fill="#ff6969" d="M91.587,287.9a.854.854,0,0,0-.176.573c.017.353.475.438.444,0A.694.694,0,0,0,91.587,287.9Z" data-name="Path 474" transform="translate(-86.053 -283.759)"/><path id="Path_475" fill="#ff6969" d="M93.262,287.731a2.769,2.769,0,0,0,.1.664c.093.286.758.438.489-.068A1.138,1.138,0,0,0,93.262,287.731Z" data-name="Path 475" transform="translate(-86.935 -283.676)"/><path id="Path_476" fill="#ff6969" d="M95.082,287.6a2.357,2.357,0,0,0,.538.733c.354.312.725.076.4-.278A1.885,1.885,0,0,0,95.082,287.6Z" data-name="Path 476" transform="translate(-87.802 -283.613)"/><path id="Path_477" fill="#ff6969" d="M96.672,287a3.207,3.207,0,0,0,.775.668c.421.236.843.008.337-.286A3.51,3.51,0,0,0,96.672,287Z" data-name="Path 477" transform="translate(-88.559 -283.328)"/><path id="Path_478" fill="#ff6969" d="M97.846,286.088a4.048,4.048,0,0,0,1.163.555c.447.07.733-.4.228-.489A9.923,9.923,0,0,0,97.846,286.088Z" data-name="Path 478" transform="translate(-89.119 -282.893)"/><path id="Path_479" fill="#ff6969" d="M98.384,285.218a3.049,3.049,0,0,1,.965-.15c.362.042.674.286.286.3A7.892,7.892,0,0,1,98.384,285.218Z" data-name="Path 479" transform="translate(-89.375 -282.405)"/></g><g id="Group_138" data-name="Group 138" transform="translate(10.661 11.621)"><path id="Path_480" fill="#fff" d="M90.364,283.16l-.594-.076s-1.614,1.923-2.45,2.77-6.374,1.18-6.374,1.18,4.79.578,6,.147S90.364,283.16,90.364,283.16Z" data-name="Path 480" transform="translate(-80.946 -283.084)"/><path id="Path_481" fill="#fec" d="M80.946,287.1s3.986,1.656,6.676.053a7.068,7.068,0,0,0,3.275-3.624l-.533-.3a14.734,14.734,0,0,1-2.742,3.011C85.921,287.536,80.946,287.1,80.946,287.1Z" data-name="Path 481" transform="translate(-80.946 -283.154)"/></g><path id="Path_482" fill="#f4b12c" d="M61.728,276.306l16.1-9.1s5.96-8.779-2.218-4.091C65.645,268.829,61.728,276.306,61.728,276.306Z" data-name="Path 482" transform="translate(-61.131 -261.296)"/><path id="Path_483" fill="#d3880f" d="M65.2,277.421s7.634-8.228,11.257-10.243,2.7-.687,1.827,2.9C74.628,272.431,65.2,277.421,65.2,277.421Z" data-name="Path 483" opacity=".5" transform="translate(-62.784 -263.437)"/><g id="Group_139" data-name="Group 139" transform="translate(3.687 9)"><path id="Path_484" fill="#ff871a" d="M67.629,285.025s1.218-1.879,5.462-3.779,13.548-3.289,13.965-3.159c.906.282.825.679.837,1.229s-2.157.416-2.157.416a74.414,74.414,0,0,0-8.405,1.4A62.3,62.3,0,0,0,67.629,285.025Z" data-name="Path 484" transform="translate(-67.629 -278.079)"/><path id="Path_485" fill="#e2660a" d="M67.629,285.889A33.533,33.533,0,0,1,76,281.934a110.741,110.741,0,0,1,11.917-2.042l-.061.856s-5.117.486-8.065.991a52.869,52.869,0,0,0-8.007,2.241A42.766,42.766,0,0,0,67.629,285.889Z" data-name="Path 485" transform="translate(-67.629 -278.943)"/></g><g id="Group_141" data-name="Group 141" transform="translate(7.782 11.19)"><g id="Group_140" data-name="Group 140"><path id="Path_486" fill="#71aa21" d="M77.537,289.01s-1.777-3.052,2.035-4.972a7.925,7.925,0,0,1,6.967-.226l1.206-.65a10.351,10.351,0,0,0-9.1.294c-4.978,2.508-2.658,6.493-2.658,6.493Z" data-name="Path 486" transform="translate(-75.448 -282.261)"/><path id="Path_487" fill="#bed134" d="M81.1,284.823c-3.812,1.92-2.035,4.972-2.035,4.972l1.783-1.03a2.662,2.662,0,0,1,1.74-2.266,5.829,5.829,0,0,1,3.259-.62l2.22-1.282A7.925,7.925,0,0,0,81.1,284.823Z" data-name="Path 487" transform="translate(-76.972 -283.045)"/></g><path id="Path_488" fill="#dce842" d="M87.8,287.56a4.655,4.655,0,0,0-3.4.5c-2.061,1.058-1.6,2.389-1.6,2.389a5.89,5.89,0,0,1,2.277-2.055A21.327,21.327,0,0,1,87.8,287.56Z" data-name="Path 488" transform="translate(-78.931 -284.726)"/></g><g id="Group_142" data-name="Group 142" transform="translate(2.632 6.448)"><path id="Path_489" fill="#ff871a" d="M65.614,281.52s1.08-1.961,5.177-4.16,13.278-4.25,13.7-4.151c.924.216.872.619.923,1.166s-2.121.569-2.121.569a74.474,74.474,0,0,0-8.284,1.994A62.334,62.334,0,0,0,65.614,281.52Z" data-name="Path 489" transform="translate(-65.614 -273.206)"/><path id="Path_490" fill="#e2660a" d="M65.614,282.322a33.542,33.542,0,0,1,8.065-4.544,110.668,110.668,0,0,1,11.74-2.889v.857s-5.069.852-7.973,1.566a52.841,52.841,0,0,0-7.826,2.808A42.861,42.861,0,0,0,65.614,282.322Z" data-name="Path 490" transform="translate(-65.614 -274.008)"/></g><g id="Group_143" data-name="Group 143" transform="translate(4.958 10.67)"><path id="Path_491" fill="#f7d48d" d="M71.372,287.312v.593s.785-3.613,3.311-4.485,6.885-.4,6.885-.4l.093-.593s-1.1-.71-4.123-.359-5.346,1.809-5.683,2.788A13.327,13.327,0,0,0,71.372,287.312Z" data-name="Path 491" transform="translate(-70.683 -281.603)"/><path id="Path_492" fill="#fec" d="M70.078,287.054a4.777,4.777,0,0,1,3.136-4.962,15.153,15.153,0,0,1,7.744-.556l.075.556s-4.151-.612-6.557.421c-3.837,1.647-3.732,4.463-3.732,4.463Z" data-name="Path 492" transform="translate(-70.057 -281.268)"/><path id="Path_493" fill="#fff" d="M70.1,292.248v.731l.667-.215v-.593Z" data-name="Path 493" transform="translate(-70.076 -286.461)"/></g><g id="Group_145" data-name="Group 145" transform="translate(9.961 5.108)"><g id="Group_144" data-name="Group 144"><path id="Path_494" fill="#71aa21" d="M81.7,277.4s-1.778-3.052,2.034-4.972A7.927,7.927,0,0,1,90.7,272.2l1.205-.651a10.351,10.351,0,0,0-9.1.295c-4.979,2.507-2.658,6.493-2.658,6.493Z" data-name="Path 494" transform="translate(-79.61 -270.648)"/><path id="Path_495" fill="#bed134" d="M85.257,273.209c-3.812,1.92-2.034,4.972-2.034,4.972l1.783-1.029a2.66,2.66,0,0,1,1.74-2.266,5.829,5.829,0,0,1,3.259-.62l2.22-1.281A7.927,7.927,0,0,0,85.257,273.209Z" data-name="Path 495" transform="translate(-81.133 -271.431)"/></g><path id="Path_496" fill="#dce842" d="M91.964,275.946a4.657,4.657,0,0,0-3.4.5c-2.061,1.059-1.6,2.389-1.6,2.389a5.887,5.887,0,0,1,2.276-2.055A21.36,21.36,0,0,1,91.964,275.946Z" data-name="Path 496" transform="translate(-83.093 -273.113)"/></g><path id="Path_497" fill="#ffe3a6" d="M92.939,275.112a2.081,2.081,0,0,0-1.195-1.208,2.027,2.027,0,0,0-2.321,1.35c-.194.48-.346.9.1,1.263a1.22,1.22,0,0,0,.788.2,4.807,4.807,0,0,1,1.285.291,1.312,1.312,0,0,0,1.474-.29C93.39,276.281,93.129,275.549,92.939,275.112Z" data-name="Path 497" transform="translate(-74.232 -267.056)"/><path id="Path_498" fill="#fff" d="M92.087,275.058c-.309-.439-1.3.267-1.294.7,0,.352.262.483.57.539.391.072.786.167,1.071-.186C92.688,275.8,92.3,275.361,92.087,275.058Z" data-name="Path 498" opacity=".5" transform="translate(-74.976 -267.574)"/><path id="Path_499" fill="#ffe3a6" d="M80.388,286.327a1.1,1.1,0,0,0-1.294.239,2.745,2.745,0,0,0-.724,1.142.386.386,0,0,0,.2.344c.679.3,2.087.2,2.31-.682A.976.976,0,0,0,80.388,286.327Z" data-name="Path 499" transform="translate(-69.058 -272.949)"/><path id="Path_500" fill="#ffe3a6" d="M84.8,284.567c-.8.875.412,1.852,1.225,1.988.839.141,2.182-.295,2.178-1.354C88.2,284.185,85.207,284.118,84.8,284.567Z" data-name="Path 500" transform="translate(-71.996 -272.044)"/><path id="Path_501" fill="#fff" d="M86.811,284.933a.559.559,0,0,0-.668.212c-.334.512.459.884.832,1.006a.753.753,0,0,0,1.049-.695C87.973,284.843,87.27,284.82,86.811,284.933Z" data-name="Path 501" opacity=".5" transform="translate(-72.723 -272.319)"/><g id="Group_146" data-name="Group 146" transform="translate(2.909 5.811)"><path id="Path_502" fill="#ed2b2b" d="M66.43,279.825l-.287.363s2.752,1.068,4.931.027a7.643,7.643,0,0,0,4-4.238,6.553,6.553,0,0,0,0-3.988Z" data-name="Path 502" transform="translate(-66.143 -271.99)"/><path id="Path_503" fill="#ff4343" d="M66.691,280.1l8.289-7.537a6.085,6.085,0,0,1-.693,4.55,7.442,7.442,0,0,1-4.661,3.265A9.113,9.113,0,0,1,66.691,280.1Z" data-name="Path 503" transform="translate(-66.404 -272.262)"/><path id="Path_504" fill="#ff6969" d="M71.33,279.128a4.076,4.076,0,0,0-1.518,1.807c-.08.493,2.34.36,3.8-.854A7.482,7.482,0,0,0,75.934,277c.413-.908.4-2.317-.5-1.73-.628.411-1.46,2.513-2.246,3.137S72.254,278.625,71.33,279.128Z" data-name="Path 504" transform="translate(-67.89 -273.488)"/><path id="Path_505" fill="#ed2b2b" d="M72.89,283.368a7.727,7.727,0,0,0-.523,1.008c-.12.346.619.184.7-.319A.69.69,0,0,0,72.89,283.368Z" data-name="Path 505" transform="translate(-69.101 -277.41)"/><path id="Path_506" fill="#ed2b2b" d="M74.967,282.984s-.083.781.057.932.528-.067.424-.407A1.008,1.008,0,0,0,74.967,282.984Z" data-name="Path 506" transform="translate(-70.334 -277.227)"/><path id="Path_507" fill="#ed2b2b" d="M76.686,281.972a.794.794,0,0,0,.358.617c.2.134.351-.355.213-.466A1.548,1.548,0,0,0,76.686,281.972Z" data-name="Path 507" transform="translate(-71.165 -276.745)"/><path id="Path_508" fill="#ed2b2b" d="M77.88,280.41s.424.622.642.6c.15-.017.369-.545.093-.6A3.208,3.208,0,0,0,77.88,280.41Z" data-name="Path 508" transform="translate(-71.734 -275.99)"/><path id="Path_509" fill="#ed2b2b" d="M78.615,278.968a2.851,2.851,0,0,1,.882-.272c.247.025.449.384-.045.384A2.96,2.96,0,0,1,78.615,278.968Z" data-name="Path 509" transform="translate(-72.084 -275.183)"/><path id="Path_510" fill="#ed2b2b" d="M79.106,277.456s.425-.542.75-.5.566.281.13.384A5.049,5.049,0,0,1,79.106,277.456Z" data-name="Path 510" transform="translate(-72.318 -274.353)"/></g><path id="Path_511" fill="#5e8e11" d="M95.6,276.265a2.729,2.729,0,0,0-2.363,1.406,3.076,3.076,0,0,0-.148,2.572,5.911,5.911,0,0,0,1.762-2.16A18.349,18.349,0,0,1,95.6,276.265Z" data-name="Path 511" transform="translate(-75.968 -268.215)"/><path id="Path_512" fill="#5e8e11" d="M87.035,272.208a5.521,5.521,0,0,0-1.891,1.544,1.174,1.174,0,0,0,.023,1.3s1.573-.272,1.783-1.089A5.276,5.276,0,0,0,87.035,272.208Z" data-name="Path 512" transform="translate(-72.201 -266.283)"/><path id="Path_513" fill="#5e8e11" d="M69.814,286.947s1.845-.067,2.427.734,1.306,1.961,1.306,1.961-1.638.281-2.395-.487A8.119,8.119,0,0,1,69.814,286.947Z" data-name="Path 513" transform="translate(-64.983 -273.303)"/><path id="Path_514" fill="#bed134" d="M98.863,277.533a2.64,2.64,0,0,0-.727,1.626,11.37,11.37,0,0,0,.089,1.679,5.615,5.615,0,0,0,1.308-1.679C99.735,278.482,98.863,277.533,98.863,277.533Z" data-name="Path 514" transform="translate(-78.472 -268.819)"/></g><g id="Group_158" data-name="Group 158" transform="translate(27.154 272.847)"><path id="Path_515" fill="#ffe3a6" d="M60.875,305.526V307.4s-.514,1.807-3.966,3.426c-4.11,1.928-9.509,2.793-14.157.8-3.678-1.577-4.276-2.527-4.276-2.527l.439-.916Z" data-name="Path 515" transform="translate(-38.476 -294.107)"/><path id="Path_516" fill="#ffe3a6" d="M39.256,298.731l-.4-.512A35.466,35.466,0,0,1,49.106,287.26c5.94-4.245,7.366-3.487,7.366-3.487l.867.724Z" data-name="Path 516" transform="translate(-38.658 -283.721)"/><path id="Path_517" fill="#ffc648" d="M39.617,304.109l16.1-9.1s10.852,5.011,2.674,9.7C48.426,310.423,39.617,304.109,39.617,304.109Z" data-name="Path 517" transform="translate(-39.019 -289.099)"/><g id="Group_148" data-name="Group 148" transform="translate(10.784 9.999)"><rect id="Rectangle_39" width="12.422" height=".671" fill="#ed2b2b" data-name="Rectangle 39" transform="translate(0 3.271)"/><path id="Path_518" fill="#ed2b2b" d="M71.491,307.113c0,1.824-2.781,3.3-6.211,3.3s-6.211-1.479-6.211-3.3,2.781-3.3,6.211-3.3S71.491,305.288,71.491,307.113Z" data-name="Path 518" transform="translate(-59.069 -303.289)"/><path id="Path_519" fill="#ff6969" d="M71.491,306.12c0,1.824-2.781,3.3-6.211,3.3s-6.211-1.479-6.211-3.3,2.781-3.3,6.211-3.3S71.491,304.3,71.491,306.12Z" data-name="Path 519" transform="translate(-59.069 -302.816)"/><path id="Path_520" fill="#ff4343" d="M71.432,306.593c0,1.538-2.491,2.784-5.563,2.784s-5.563-1.246-5.563-2.784,2.491-2.784,5.563-2.784S71.432,305.055,71.432,306.593Z" data-name="Path 520" transform="translate(-59.657 -303.289)"/><path id="Path_521" fill="#ed2b2b" d="M62.886,308.3a1.618,1.618,0,0,1-.051-3.021,8.2,8.2,0,0,1,5.369-.69c.8.19-.045.928-.988,1a7.575,7.575,0,0,0-2.049.421c-.722.316-1,.792-.977,1.036C64.234,307.487,63.338,308.281,62.886,308.3Z" data-name="Path 521" transform="translate(-60.375 -303.576)"/><path id="Path_522" fill="#ed2b2b" d="M66.611,308.315c-.573.3-1.453,1.093-.471,1.38a8.248,8.248,0,0,0,5.712-.452c1.512-.714,1.871-1.89.989-2.716-.64-.6-1.276-.652-1.634-.419-.833.541-.1,1.5-1.721,1.821C68.532,308.117,67.262,307.972,66.611,308.315Z" data-name="Path 522" transform="translate(-62.227 -304.323)"/><path id="Path_523" fill="#ff6969" d="M71.683,305.557s.433-.564-.09-.551C71.249,305.014,71.683,305.557,71.683,305.557Z" data-name="Path 523" transform="translate(-64.971 -303.859)"/><path id="Path_524" fill="#ff6969" d="M70.177,305.618s0-.716-.559-.629C69.252,305.047,70.177,305.618,70.177,305.618Z" data-name="Path 524" transform="translate(-64.053 -303.848)"/><path id="Path_525" fill="#ff6969" d="M68.413,305.837s-.362-.651-.767-.522S68.413,305.837,68.413,305.837Z" data-name="Path 525" transform="translate(-63.114 -303.998)"/><path id="Path_526" fill="#ff6969" d="M66.573,306.4s-.429-.774-.986-.543S66.573,306.4,66.573,306.4Z" data-name="Path 526" transform="translate(-62.116 -304.243)"/><path id="Path_527" fill="#ff6969" d="M65.091,307.333s-.68-.809-1.3-.408C63.372,307.191,65.091,307.333,65.091,307.333Z" data-name="Path 527" transform="translate(-61.285 -304.72)"/><path id="Path_528" fill="#ff6969" d="M64.335,308.536s-1-.344-1.334-.1S63.625,309.007,64.335,308.536Z" data-name="Path 528" transform="translate(-60.908 -305.451)"/><path id="Path_529" fill="#ff6969" d="M64.471,309.7a2.536,2.536,0,0,0-1.031.253c-.164.112,0,.384.329.32A.889.889,0,0,0,64.471,309.7Z" data-name="Path 529" transform="translate(-61.12 -306.096)"/><path id="Path_530" fill="#ff6969" d="M76.153,307.072a1.091,1.091,0,0,1,.716-.26c.4.023.6.284.118.317A2.858,2.858,0,0,1,76.153,307.072Z" data-name="Path 530" transform="translate(-67.206 -304.719)"/><path id="Path_531" fill="#ff6969" d="M67.626,310.733a2.236,2.236,0,0,0-.63.523c-.135.227.388.463.547.05S67.626,310.733,67.626,310.733Z" data-name="Path 531" transform="translate(-62.834 -306.587)"/><path id="Path_532" fill="#ff6969" d="M69.475,310.733a.857.857,0,0,0-.176.573c.017.354.475.438.444,0A.7.7,0,0,0,69.475,310.733Z" data-name="Path 532" transform="translate(-63.941 -306.587)"/><path id="Path_533" fill="#ff6969" d="M71.15,310.559a2.766,2.766,0,0,0,.1.664c.093.286.758.438.489-.067A1.138,1.138,0,0,0,71.15,310.559Z" data-name="Path 533" transform="translate(-64.823 -306.504)"/><path id="Path_534" fill="#ff6969" d="M72.971,310.428a2.358,2.358,0,0,0,.538.733c.353.312.724.076.4-.278A1.889,1.889,0,0,0,72.971,310.428Z" data-name="Path 534" transform="translate(-65.691 -306.442)"/><path id="Path_535" fill="#ff6969" d="M74.56,309.827a3.2,3.2,0,0,0,.776.668c.421.236.842.008.337-.286A3.506,3.506,0,0,0,74.56,309.827Z" data-name="Path 535" transform="translate(-66.448 -306.156)"/><path id="Path_536" fill="#ff6969" d="M75.735,308.917a4.031,4.031,0,0,0,1.163.554c.447.07.733-.4.227-.489A9.885,9.885,0,0,0,75.735,308.917Z" data-name="Path 536" transform="translate(-67.007 -305.721)"/><path id="Path_537" fill="#ff6969" d="M76.272,308.046a3.065,3.065,0,0,1,.966-.15c.362.042.674.286.286.3A7.9,7.9,0,0,1,76.272,308.046Z" data-name="Path 537" transform="translate(-67.263 -305.233)"/></g><g id="Group_149" data-name="Group 149" transform="translate(10.661 11.621)"><path id="Path_538" fill="#fff" d="M68.252,305.989l-.594-.076s-1.614,1.923-2.45,2.769-6.374,1.181-6.374,1.181,4.79.577,6,.147S68.252,305.989,68.252,305.989Z" data-name="Path 538" transform="translate(-58.834 -305.913)"/><path id="Path_539" fill="#fec" d="M58.834,309.932s3.986,1.655,6.676.053a7.067,7.067,0,0,0,3.274-3.624l-.533-.3a14.741,14.741,0,0,1-2.742,3.011C63.809,310.364,58.834,309.932,58.834,309.932Z" data-name="Path 539" transform="translate(-58.834 -305.982)"/></g><path id="Path_540" fill="#f4b12c" d="M39.617,299.134l16.1-9.1s5.96-8.779-2.219-4.091C43.534,291.658,39.617,299.134,39.617,299.134Z" data-name="Path 540" transform="translate(-39.019 -284.124)"/><path id="Path_541" fill="#d3880f" d="M43.087,300.249s7.634-8.228,11.257-10.244,2.7-.687,1.826,2.905C52.517,295.259,43.087,300.249,43.087,300.249Z" data-name="Path 541" opacity=".5" transform="translate(-40.672 -286.265)"/><g id="Group_150" data-name="Group 150" transform="translate(3.687 9)"><path id="Path_542" fill="#ff871a" d="M45.517,307.854s1.219-1.879,5.462-3.779,13.548-3.289,13.965-3.159c.906.282.826.679.837,1.228s-2.156.416-2.156.416a74.4,74.4,0,0,0-8.405,1.4A62.314,62.314,0,0,0,45.517,307.854Z" data-name="Path 542" transform="translate(-45.517 -300.908)"/><path id="Path_543" fill="#e2660a" d="M45.517,308.717a33.541,33.541,0,0,1,8.37-3.955A110.661,110.661,0,0,1,65.8,302.721l-.061.855s-5.116.487-8.065.991a52.859,52.859,0,0,0-8.007,2.241A42.928,42.928,0,0,0,45.517,308.717Z" data-name="Path 543" transform="translate(-45.517 -301.772)"/></g><g id="Group_152" data-name="Group 152" transform="translate(7.782 11.19)"><g id="Group_151" data-name="Group 151"><path id="Path_544" fill="#71aa21" d="M55.426,311.839s-1.778-3.052,2.035-4.972a7.927,7.927,0,0,1,6.967-.226l1.205-.65a10.349,10.349,0,0,0-9.1.295c-4.979,2.507-2.658,6.493-2.658,6.493Z" data-name="Path 544" transform="translate(-53.337 -305.089)"/><path id="Path_545" fill="#bed134" d="M58.984,307.651c-3.813,1.92-2.035,4.972-2.035,4.972l1.783-1.03a2.661,2.661,0,0,1,1.74-2.267,5.832,5.832,0,0,1,3.259-.619l2.22-1.282A7.927,7.927,0,0,0,58.984,307.651Z" data-name="Path 545" transform="translate(-54.86 -305.873)"/></g><path id="Path_546" fill="#dce842" d="M65.691,310.388a4.655,4.655,0,0,0-3.4.5c-2.061,1.058-1.6,2.389-1.6,2.389a5.891,5.891,0,0,1,2.276-2.056A21.421,21.421,0,0,1,65.691,310.388Z" data-name="Path 546" transform="translate(-56.82 -307.554)"/></g><g id="Group_153" data-name="Group 153" transform="translate(2.632 6.449)"><path id="Path_547" fill="#ff871a" d="M43.5,304.349s1.081-1.961,5.178-4.159,13.278-4.25,13.7-4.151c.924.216.872.618.923,1.166s-2.121.569-2.121.569a74.416,74.416,0,0,0-8.284,1.995A62.3,62.3,0,0,0,43.5,304.349Z" data-name="Path 547" transform="translate(-43.502 -296.035)"/><path id="Path_548" fill="#e2660a" d="M43.5,305.15a33.554,33.554,0,0,1,8.065-4.544,110.7,110.7,0,0,1,11.74-2.889v.857s-5.068.852-7.973,1.566a52.838,52.838,0,0,0-7.826,2.808A42.851,42.851,0,0,0,43.5,305.15Z" data-name="Path 548" transform="translate(-43.502 -296.836)"/></g><g id="Group_154" data-name="Group 154" transform="translate(4.959 10.67)"><path id="Path_549" fill="#f7d48d" d="M49.26,310.141v.593s.785-3.613,3.311-4.486,6.885-.4,6.885-.4l.092-.593s-1.1-.71-4.123-.358-5.346,1.809-5.683,2.787A13.336,13.336,0,0,0,49.26,310.141Z" data-name="Path 549" transform="translate(-48.572 -304.432)"/><path id="Path_550" fill="#fec" d="M47.967,309.883a4.777,4.777,0,0,1,3.136-4.962,15.153,15.153,0,0,1,7.744-.556l.075.556s-4.151-.612-6.557.422c-3.837,1.647-3.732,4.463-3.732,4.463Z" data-name="Path 550" transform="translate(-47.946 -304.096)"/><path id="Path_551" fill="#fff" d="M47.987,315.076v.73l.667-.215V315Z" data-name="Path 551" transform="translate(-47.965 -309.289)"/></g><g id="Group_156" data-name="Group 156" transform="translate(9.961 5.108)"><g id="Group_155" data-name="Group 155"><path id="Path_552" fill="#71aa21" d="M59.587,300.225s-1.777-3.052,2.035-4.972a7.925,7.925,0,0,1,6.967-.226l1.206-.651a10.352,10.352,0,0,0-9.1.295c-4.978,2.507-2.658,6.493-2.658,6.493Z" data-name="Path 552" transform="translate(-57.498 -293.476)"/><path id="Path_553" fill="#bed134" d="M63.146,296.038c-3.812,1.92-2.035,4.972-2.035,4.972l1.783-1.03a2.662,2.662,0,0,1,1.74-2.266,5.823,5.823,0,0,1,3.259-.62l2.22-1.282A7.925,7.925,0,0,0,63.146,296.038Z" data-name="Path 553" transform="translate(-59.022 -294.26)"/></g><path id="Path_554" fill="#dce842" d="M69.852,298.775a4.655,4.655,0,0,0-3.4.5c-2.061,1.058-1.6,2.389-1.6,2.389a5.891,5.891,0,0,1,2.276-2.055A21.356,21.356,0,0,1,69.852,298.775Z" data-name="Path 554" transform="translate(-60.981 -295.941)"/></g><path id="Path_555" fill="#ffe3a6" d="M70.827,297.94a2.082,2.082,0,0,0-1.2-1.208,2.028,2.028,0,0,0-2.321,1.351c-.194.48-.346.9.1,1.263a1.226,1.226,0,0,0,.788.2,4.793,4.793,0,0,1,1.285.291,1.313,1.313,0,0,0,1.474-.29C71.278,299.109,71.017,298.377,70.827,297.94Z" data-name="Path 555" transform="translate(-52.12 -289.884)"/><path id="Path_556" fill="#fff" d="M69.976,297.887c-.31-.439-1.3.267-1.3.7,0,.352.262.483.57.539.39.071.786.167,1.071-.187C70.576,298.629,70.189,298.19,69.976,297.887Z" data-name="Path 556" opacity=".5" transform="translate(-52.864 -290.403)"/><path id="Path_557" fill="#ffe3a6" d="M58.277,309.155a1.1,1.1,0,0,0-1.294.238,2.734,2.734,0,0,0-.724,1.142.385.385,0,0,0,.2.344c.679.3,2.088.2,2.31-.682A.975.975,0,0,0,58.277,309.155Z" data-name="Path 557" transform="translate(-46.946 -295.777)"/><path id="Path_558" fill="#ffe3a6" d="M62.687,307.395c-.8.876.412,1.852,1.225,1.989.839.14,2.183-.295,2.178-1.354C66.086,307.014,63.095,306.947,62.687,307.395Z" data-name="Path 558" transform="translate(-49.884 -294.872)"/><path id="Path_559" fill="#fff" d="M64.7,307.761a.559.559,0,0,0-.668.212c-.333.512.46.883.833,1.006a.753.753,0,0,0,1.049-.695C65.862,307.672,65.158,307.648,64.7,307.761Z" data-name="Path 559" opacity=".5" transform="translate(-50.611 -295.147)"/><g id="Group_157" data-name="Group 157" transform="translate(2.909 5.811)"><path id="Path_560" fill="#ed2b2b" d="M44.318,302.653l-.286.364s2.751,1.068,4.931.027a7.638,7.638,0,0,0,4-4.238,6.548,6.548,0,0,0,0-3.988Z" data-name="Path 560" transform="translate(-44.032 -294.818)"/><path id="Path_561" fill="#ff4343" d="M44.579,302.925l8.289-7.536a6.082,6.082,0,0,1-.693,4.549,7.439,7.439,0,0,1-4.662,3.265A9.115,9.115,0,0,1,44.579,302.925Z" data-name="Path 561" transform="translate(-44.293 -295.09)"/><path id="Path_562" fill="#ff6969" d="M49.219,301.956a4.071,4.071,0,0,0-1.518,1.808c-.08.492,2.34.36,3.8-.855a7.476,7.476,0,0,0,2.318-3.079c.414-.908.4-2.317-.5-1.73-.629.411-1.461,2.513-2.247,3.137S50.143,301.453,49.219,301.956Z" data-name="Path 562" transform="translate(-45.779 -296.316)"/><path id="Path_563" fill="#ed2b2b" d="M50.778,306.2a7.728,7.728,0,0,0-.523,1.007c-.12.346.619.184.7-.319A.689.689,0,0,0,50.778,306.2Z" data-name="Path 563" transform="translate(-46.99 -300.238)"/><path id="Path_564" fill="#ed2b2b" d="M52.855,305.812s-.083.781.058.932.528-.068.424-.408A1.01,1.01,0,0,0,52.855,305.812Z" data-name="Path 564" transform="translate(-48.223 -300.055)"/><path id="Path_565" fill="#ed2b2b" d="M54.574,304.8a.794.794,0,0,0,.358.617c.2.134.351-.355.213-.466A1.552,1.552,0,0,0,54.574,304.8Z" data-name="Path 565" transform="translate(-49.054 -299.573)"/><path id="Path_566" fill="#ed2b2b" d="M55.769,303.238s.424.622.642.6c.15-.017.369-.545.093-.6A3.207,3.207,0,0,0,55.769,303.238Z" data-name="Path 566" transform="translate(-49.623 -298.818)"/><path id="Path_567" fill="#ed2b2b" d="M56.5,301.8a2.855,2.855,0,0,1,.883-.272c.247.025.449.384-.045.384A2.966,2.966,0,0,1,56.5,301.8Z" data-name="Path 567" transform="translate(-49.972 -298.011)"/><path id="Path_568" fill="#ed2b2b" d="M56.995,300.284s.425-.541.749-.5.566.281.131.384A5.055,5.055,0,0,1,56.995,300.284Z" data-name="Path 568" transform="translate(-50.207 -297.181)"/></g><path id="Path_569" fill="#5e8e11" d="M73.484,299.094a2.729,2.729,0,0,0-2.364,1.406,3.078,3.078,0,0,0-.148,2.572,5.907,5.907,0,0,0,1.762-2.159A18.185,18.185,0,0,1,73.484,299.094Z" data-name="Path 569" transform="translate(-53.856 -291.044)"/><path id="Path_570" fill="#5e8e11" d="M64.924,295.036a5.521,5.521,0,0,0-1.891,1.544,1.174,1.174,0,0,0,.024,1.3s1.572-.272,1.783-1.089A5.269,5.269,0,0,0,64.924,295.036Z" data-name="Path 570" transform="translate(-50.089 -289.111)"/><path id="Path_571" fill="#5e8e11" d="M47.7,309.775s1.844-.067,2.427.735,1.3,1.961,1.3,1.961-1.638.281-2.395-.487A8.126,8.126,0,0,1,47.7,309.775Z" data-name="Path 571" transform="translate(-42.871 -296.131)"/><path id="Path_572" fill="#bed134" d="M76.751,300.361a2.643,2.643,0,0,0-.727,1.626,11.4,11.4,0,0,0,.09,1.679,5.615,5.615,0,0,0,1.308-1.679C77.623,301.31,76.751,300.361,76.751,300.361Z" data-name="Path 572" transform="translate(-56.36 -291.647)"/></g><path id="Path_573" fill="#bed134" d="M28.808,301.822a12.748,12.748,0,0,1,3.483-.794,9.614,9.614,0,0,1,2.177.546,2.736,2.736,0,0,1-2.409,1.152A13.39,13.39,0,0,1,28.808,301.822Z" data-name="Path 573" transform="translate(-6.717 -19.114)"/><path id="Path_574" fill="#bed134" d="M34.671,302.551s-1.407,1.588-1.225,2.916a8.415,8.415,0,0,0,.723,2.393A3.656,3.656,0,0,0,35.5,305,4.326,4.326,0,0,0,34.671,302.551Z" data-name="Path 574" transform="translate(-8.918 -19.843)"/><path id="Path_575" fill="#bed134" d="M88.036,298.557s.618,1.815,1.971,1.9a5.252,5.252,0,0,0,2.78-.9S90.374,297.564,88.036,298.557Z" data-name="Path 575" transform="translate(-34.929 -17.808)"/></g></svg>